<svg width="38" height="38" viewBox="0 0 38 38" fill="none" xmlns="http://www.w3.org/2000/svg">
<rect width="38" height="38" rx="19" fill="white"/>
<g clip-path="url(#clip0_519_1654)">
<path d="M16.0506 11.1431C14.7484 11.1431 13.4995 11.6604 12.5787 12.5812C11.6579 13.502 11.1406 14.7509 11.1406 16.0531V21.9481C11.1406 23.2503 11.6579 24.4992 12.5787 25.42C13.4995 26.3408 14.7484 26.8581 16.0506 26.8581H21.9436C23.2458 26.8581 24.4947 26.3408 25.4155 25.42C26.3363 24.4992 26.8536 23.2503 26.8536 21.9481V16.0531C26.8536 14.7509 26.3363 13.502 25.4155 12.5812C24.4947 11.6604 23.2458 11.1431 21.9436 11.1431H16.0506ZM16.0506 12.6161H21.9436C22.8553 12.6166 23.7294 12.979 24.3741 13.6236C25.0187 14.2683 25.3811 15.1424 25.3816 16.0541V21.9491C25.3816 23.8451 23.8396 25.3871 21.9446 25.3871H16.0506C15.1393 25.3863 14.2656 25.0239 13.6212 24.3795C12.9768 23.7351 12.6144 22.8614 12.6136 21.9501V16.0531C12.6144 15.1416 12.9769 14.2677 13.6215 13.6233C14.2661 12.9788 15.1391 12.6166 16.0506 12.6161ZM23.2206 14.2551C22.9316 14.2551 22.6976 14.4891 22.6976 14.7781C22.6976 15.0671 22.9316 15.3011 23.2206 15.3011C23.5096 15.3011 23.7436 15.0671 23.7436 14.7781C23.7436 14.4891 23.5096 14.2551 23.2206 14.2551ZM18.9976 15.0731C17.9558 15.0731 16.9567 15.4867 16.2198 16.2231C15.4828 16.9594 15.0684 17.9583 15.0676 19.0001C15.0682 20.042 15.4824 21.0411 16.2194 21.7777C16.9564 22.5143 17.9557 22.9281 18.9976 22.9281C20.0392 22.9275 21.038 22.5135 21.7746 21.777C22.5111 21.0405 22.9251 20.0417 22.9256 19.0001C22.9251 17.9585 22.5111 16.9597 21.7746 16.2231C21.038 15.4866 20.0392 15.0736 18.9976 15.0731ZM18.9976 16.5461C19.6482 16.5474 20.2717 16.8063 20.7318 17.2662C21.1918 17.7261 21.451 18.3495 21.4526 19.0001C21.4513 19.6508 21.1922 20.2744 20.7321 20.7346C20.272 21.1947 19.6483 21.4537 18.9976 21.4551C18.3466 21.4543 17.7224 21.1954 17.2618 20.7353C16.8013 20.2751 16.5419 19.6511 16.5406 19.0001C16.5419 18.349 16.8013 17.725 17.2618 17.2649C17.7224 16.8047 18.3466 16.5469 18.9976 16.5461Z" fill="#D360E2"/>
</g>
<defs>
<clipPath id="clip0_519_1654">
<rect width="18" height="18" fill="white" transform="translate(10 10)"/>
</clipPath>
</defs>
</svg>
