<svg width="79" height="37" viewBox="0 0 79 37" fill="none" xmlns="http://www.w3.org/2000/svg">
<path d="M9.56388 34L0.0397283 1.27273H8.78085L13.7187 22.718H13.9904L19.6313 1.27273H26.7585L32.3995 22.766H32.6711L37.625 1.27273H46.3501L36.8419 34H29.2194L23.3228 14.1527H23.0671L17.1704 34H9.56388ZM60.1969 22.2386H66.5889L69.3055 25.7063L72.8691 29.7972L78.3503 36.5568H71.1912L67.356 31.9705L65.0868 28.7106L60.1969 22.2386ZM78.574 17.6364C78.574 21.2372 77.8815 24.2894 76.4966 26.793C75.1116 29.2965 73.2366 31.1982 70.8716 32.4979C68.5172 33.7976 65.8751 34.4474 62.9454 34.4474C60.0051 34.4474 57.3577 33.7923 55.0033 32.4819C52.6489 31.1715 50.7793 29.2699 49.3943 26.777C48.02 24.2734 47.3329 21.2266 47.3329 17.6364C47.3329 14.0355 48.02 10.9833 49.3943 8.47976C50.7793 5.97621 52.6489 4.07457 55.0033 2.77486C57.3577 1.47514 60.0051 0.825283 62.9454 0.825283C65.8751 0.825283 68.5172 1.47514 70.8716 2.77486C73.2366 4.07457 75.1116 5.97621 76.4966 8.47976C77.8815 10.9833 78.574 14.0355 78.574 17.6364ZM70.4881 17.6364C70.4881 15.5057 70.1844 13.7053 69.5772 12.2351C68.9806 10.7649 68.1177 9.65163 66.9884 8.89524C65.8698 8.13885 64.5222 7.76065 62.9454 7.76065C61.3794 7.76065 60.0317 8.13885 58.9025 8.89524C57.7732 9.65163 56.905 10.7649 56.2977 12.2351C55.7011 13.7053 55.4028 15.5057 55.4028 17.6364C55.4028 19.767 55.7011 21.5675 56.2977 23.0376C56.905 24.5078 57.7732 25.6211 58.9025 26.3775C60.0317 27.1339 61.3794 27.5121 62.9454 27.5121C64.5222 27.5121 65.8698 27.1339 66.9884 26.3775C68.1177 25.6211 68.9806 24.5078 69.5772 23.0376C70.1844 21.5675 70.4881 19.767 70.4881 17.6364Z" fill="url(#paint0_linear_500_15)"/>
<defs>
<linearGradient id="paint0_linear_500_15" x1="-1" y1="0" x2="80.1168" y2="43.5211" gradientUnits="userSpaceOnUse">
<stop stop-color="#FE0190"/>
<stop offset="1" stop-color="#D016FF"/>
</linearGradient>
</defs>
</svg>
