<svg width="524" height="546" viewBox="0 0 524 546" fill="none" xmlns="http://www.w3.org/2000/svg">
<g filter="url(#filter0_d_589_28)">
<rect y="323" width="249" height="223" rx="20" fill="#AD00FF" shape-rendering="crispEdges"/>
<path d="M55.0511 391.5L51.3125 386.54H50.4716V391.5H48.0114V379.864H50.4716V384.511H50.9659L54.8295 379.864H57.892L53.3523 385.261L58.1023 391.5H55.0511ZM62.5966 391.67C61.714 391.67 60.9508 391.483 60.3068 391.108C59.6667 390.729 59.1723 390.203 58.8239 389.528C58.4754 388.85 58.3011 388.064 58.3011 387.17C58.3011 386.269 58.4754 385.481 58.8239 384.807C59.1723 384.129 59.6667 383.602 60.3068 383.227C60.9508 382.848 61.714 382.659 62.5966 382.659C63.4792 382.659 64.2405 382.848 64.8807 383.227C65.5246 383.602 66.0208 384.129 66.3693 384.807C66.7178 385.481 66.892 386.269 66.892 387.17C66.892 388.064 66.7178 388.85 66.3693 389.528C66.0208 390.203 65.5246 390.729 64.8807 391.108C64.2405 391.483 63.4792 391.67 62.5966 391.67ZM62.608 389.795C63.0095 389.795 63.3447 389.682 63.6136 389.455C63.8826 389.223 64.0852 388.909 64.2216 388.511C64.3617 388.114 64.4318 387.661 64.4318 387.153C64.4318 386.646 64.3617 386.193 64.2216 385.795C64.0852 385.398 63.8826 385.083 63.6136 384.852C63.3447 384.621 63.0095 384.506 62.608 384.506C62.2027 384.506 61.8617 384.621 61.5852 384.852C61.3125 385.083 61.1061 385.398 60.9659 385.795C60.8295 386.193 60.7614 386.646 60.7614 387.153C60.7614 387.661 60.8295 388.114 60.9659 388.511C61.1061 388.909 61.3125 389.223 61.5852 389.455C61.8617 389.682 62.2027 389.795 62.608 389.795ZM73.625 388.824L75.9886 382.773H77.8295L74.4261 391.5H72.8182L69.4943 382.773H71.3295L73.625 388.824ZM70.7784 382.773V391.5H68.4659V382.773H70.7784ZM76.5909 391.5V382.773H78.875V391.5H76.5909ZM83.2358 391.665C82.679 391.665 82.1828 391.568 81.7472 391.375C81.3116 391.178 80.9669 390.888 80.7131 390.506C80.4631 390.119 80.3381 389.638 80.3381 389.062C80.3381 388.578 80.4271 388.17 80.6051 387.841C80.7831 387.511 81.0256 387.246 81.3324 387.045C81.6392 386.845 81.9877 386.693 82.3778 386.591C82.7718 386.489 83.1847 386.417 83.6165 386.375C84.1241 386.322 84.5331 386.273 84.8438 386.227C85.1544 386.178 85.3797 386.106 85.5199 386.011C85.66 385.917 85.7301 385.777 85.7301 385.591V385.557C85.7301 385.197 85.6165 384.919 85.3892 384.722C85.1657 384.525 84.8475 384.426 84.4347 384.426C83.9991 384.426 83.6525 384.523 83.3949 384.716C83.1373 384.905 82.9669 385.144 82.8835 385.432L80.6449 385.25C80.7585 384.72 80.982 384.261 81.3153 383.875C81.6487 383.485 82.0786 383.186 82.6051 382.977C83.1354 382.765 83.7491 382.659 84.446 382.659C84.9309 382.659 85.3949 382.716 85.8381 382.83C86.285 382.943 86.6809 383.119 87.0256 383.358C87.3741 383.597 87.6487 383.903 87.8494 384.278C88.0502 384.65 88.1506 385.095 88.1506 385.614V391.5H85.8551V390.29H85.7869C85.6468 390.562 85.4593 390.803 85.2244 391.011C84.9896 391.216 84.7074 391.377 84.3778 391.494C84.0483 391.608 83.6676 391.665 83.2358 391.665ZM83.929 389.994C84.285 389.994 84.5994 389.924 84.8722 389.784C85.1449 389.64 85.3589 389.447 85.5142 389.205C85.6695 388.962 85.7472 388.687 85.7472 388.381V387.455C85.6714 387.504 85.5672 387.549 85.4347 387.591C85.3059 387.629 85.16 387.665 84.9972 387.699C84.8343 387.729 84.6714 387.758 84.5085 387.784C84.3456 387.807 84.1979 387.828 84.0653 387.847C83.7813 387.888 83.5331 387.955 83.321 388.045C83.1089 388.136 82.9441 388.259 82.8267 388.415C82.7093 388.566 82.6506 388.756 82.6506 388.983C82.6506 389.312 82.7699 389.564 83.0085 389.739C83.2509 389.909 83.5578 389.994 83.929 389.994ZM96.1023 386.17V388.074H91.5455V386.17H96.1023ZM92.3409 382.773V391.5H90.0284V382.773H92.3409ZM97.6193 382.773V391.5H95.3239V382.773H97.6193ZM98.8153 394.057V389.58H99.4858C99.679 389.458 99.8343 389.265 99.9517 389C100.073 388.735 100.171 388.422 100.247 388.062C100.327 387.703 100.387 387.314 100.429 386.898C100.474 386.477 100.514 386.053 100.548 385.625L100.776 382.773H107.469V389.58H108.821V394.057H106.514V391.5H101.179V394.057H98.8153ZM101.895 389.58H105.185V384.636H102.832L102.741 385.625C102.677 386.557 102.584 387.348 102.463 388C102.342 388.648 102.152 389.174 101.895 389.58ZM112.72 391.665C112.163 391.665 111.667 391.568 111.232 391.375C110.796 391.178 110.451 390.888 110.197 390.506C109.947 390.119 109.822 389.638 109.822 389.062C109.822 388.578 109.911 388.17 110.089 387.841C110.268 387.511 110.51 387.246 110.817 387.045C111.124 386.845 111.472 386.693 111.862 386.591C112.256 386.489 112.669 386.417 113.101 386.375C113.608 386.322 114.018 386.273 114.328 386.227C114.639 386.178 114.864 386.106 115.004 386.011C115.144 385.917 115.214 385.777 115.214 385.591V385.557C115.214 385.197 115.101 384.919 114.874 384.722C114.65 384.525 114.332 384.426 113.919 384.426C113.483 384.426 113.137 384.523 112.879 384.716C112.622 384.905 112.451 385.144 112.368 385.432L110.129 385.25C110.243 384.72 110.466 384.261 110.8 383.875C111.133 383.485 111.563 383.186 112.089 382.977C112.62 382.765 113.233 382.659 113.93 382.659C114.415 382.659 114.879 382.716 115.322 382.83C115.769 382.943 116.165 383.119 116.51 383.358C116.858 383.597 117.133 383.903 117.334 384.278C117.535 384.65 117.635 385.095 117.635 385.614V391.5H115.339V390.29H115.271C115.131 390.562 114.944 390.803 114.709 391.011C114.474 391.216 114.192 391.377 113.862 391.494C113.533 391.608 113.152 391.665 112.72 391.665ZM113.413 389.994C113.769 389.994 114.084 389.924 114.357 389.784C114.629 389.64 114.843 389.447 114.999 389.205C115.154 388.962 115.232 388.687 115.232 388.381V387.455C115.156 387.504 115.052 387.549 114.919 387.591C114.79 387.629 114.644 387.665 114.482 387.699C114.319 387.729 114.156 387.758 113.993 387.784C113.83 387.807 113.682 387.828 113.55 387.847C113.266 387.888 113.018 387.955 112.805 388.045C112.593 388.136 112.429 388.259 112.311 388.415C112.194 388.566 112.135 388.756 112.135 388.983C112.135 389.312 112.254 389.564 112.493 389.739C112.735 389.909 113.042 389.994 113.413 389.994Z" fill="black"/>
<path d="M54.7812 410.773V419.5H53.4688V411.898H49.3608V419.5H48.0483V410.773H54.7812ZM56.6925 421.955V412.955H57.9368V414.016H58.0433C58.1172 413.879 58.2237 413.722 58.3629 413.543C58.5021 413.364 58.6953 413.207 58.9425 413.074C59.1896 412.938 59.5163 412.869 59.9226 412.869C60.451 412.869 60.9226 413.003 61.3374 413.27C61.7521 413.537 62.0774 413.922 62.3132 414.425C62.5518 414.928 62.6712 415.533 62.6712 416.24C62.6712 416.947 62.5533 417.554 62.3175 418.06C62.0817 418.562 61.7578 418.95 61.3459 419.223C60.9339 419.493 60.4638 419.628 59.9354 419.628C59.5376 419.628 59.2124 419.561 58.9595 419.428C58.7095 419.294 58.5135 419.138 58.3714 418.959C58.2294 418.78 58.12 418.621 58.0433 418.482H57.9666V421.955H56.6925ZM57.9411 416.227C57.9411 416.687 58.0078 417.091 58.1413 417.438C58.2749 417.784 58.468 418.055 58.7209 418.251C58.9737 418.445 59.2834 418.541 59.6499 418.541C60.0305 418.541 60.3487 418.44 60.6044 418.239C60.8601 418.034 61.0533 417.757 61.1839 417.408C61.3175 417.058 61.3842 416.665 61.3842 416.227C61.3842 415.795 61.3189 415.408 61.1882 415.064C61.0604 414.72 60.8672 414.449 60.6087 414.25C60.353 414.051 60.0334 413.952 59.6499 413.952C59.2805 413.952 58.968 414.047 58.7124 414.237C58.4595 414.428 58.2678 414.693 58.1371 415.034C58.0064 415.375 57.9411 415.773 57.9411 416.227ZM66.8558 419.632C66.2422 419.632 65.7067 419.491 65.2493 419.21C64.7919 418.929 64.4368 418.536 64.1839 418.03C63.9311 417.524 63.8047 416.933 63.8047 416.257C63.8047 415.578 63.9311 414.984 64.1839 414.476C64.4368 413.967 64.7919 413.572 65.2493 413.291C65.7067 413.01 66.2422 412.869 66.8558 412.869C67.4695 412.869 68.005 413.01 68.4624 413.291C68.9197 413.572 69.2749 413.967 69.5277 414.476C69.7805 414.984 69.907 415.578 69.907 416.257C69.907 416.933 69.7805 417.524 69.5277 418.03C69.2749 418.536 68.9197 418.929 68.4624 419.21C68.005 419.491 67.4695 419.632 66.8558 419.632ZM66.8601 418.562C67.2578 418.562 67.5874 418.457 67.8487 418.247C68.1101 418.037 68.3033 417.757 68.4283 417.408C68.5561 417.058 68.62 416.673 68.62 416.253C68.62 415.835 68.5561 415.452 68.4283 415.102C68.3033 414.75 68.1101 414.467 67.8487 414.254C67.5874 414.041 67.2578 413.935 66.8601 413.935C66.4595 413.935 66.1271 414.041 65.8629 414.254C65.6016 414.467 65.407 414.75 65.2791 415.102C65.1541 415.452 65.0916 415.835 65.0916 416.253C65.0916 416.673 65.1541 417.058 65.2791 417.408C65.407 417.757 65.6016 418.037 65.8629 418.247C66.1271 418.457 66.4595 418.562 66.8601 418.562ZM74.0863 419.632C73.4528 419.632 72.9073 419.489 72.4499 419.202C71.9954 418.912 71.646 418.513 71.4016 418.004C71.1573 417.496 71.0352 416.913 71.0352 416.257C71.0352 415.592 71.1602 415.006 71.4102 414.497C71.6602 413.986 72.0124 413.587 72.467 413.3C72.9215 413.013 73.457 412.869 74.0735 412.869C74.5707 412.869 75.0138 412.962 75.4031 413.146C75.7923 413.328 76.1062 413.584 76.3448 413.913C76.5863 414.243 76.7298 414.628 76.7752 415.068H75.5352C75.467 414.761 75.3107 414.497 75.0664 414.276C74.8249 414.054 74.5011 413.943 74.0948 413.943C73.7397 413.943 73.4286 414.037 73.1616 414.224C72.8974 414.409 72.6914 414.673 72.5437 415.017C72.396 415.358 72.3221 415.761 72.3221 416.227C72.3221 416.705 72.3945 417.116 72.5394 417.463C72.6843 417.81 72.8888 418.078 73.1531 418.268C73.4201 418.459 73.734 418.554 74.0948 418.554C74.3363 418.554 74.555 418.51 74.7511 418.422C74.9499 418.331 75.1161 418.202 75.2496 418.034C75.386 417.866 75.4812 417.665 75.5352 417.429H76.7752C76.7298 417.852 76.592 418.23 76.3619 418.562C76.1317 418.895 75.8235 419.156 75.4371 419.347C75.0536 419.537 74.6033 419.632 74.0863 419.632ZM77.6424 414.054V412.955H83.1651V414.054H81.0302V419.5H79.7859V414.054H77.6424ZM84.5128 419.5V412.955H85.7869V419.5H84.5128ZM85.1562 411.945C84.9347 411.945 84.7443 411.871 84.5852 411.723C84.429 411.572 84.3509 411.393 84.3509 411.186C84.3509 410.976 84.429 410.797 84.5852 410.649C84.7443 410.499 84.9347 410.423 85.1562 410.423C85.3778 410.423 85.5668 410.499 85.723 410.649C85.8821 410.797 85.9616 410.976 85.9616 411.186C85.9616 411.393 85.8821 411.572 85.723 411.723C85.5668 411.871 85.3778 411.945 85.1562 411.945ZM87.5011 421.955V412.955H88.7454V414.016H88.8519C88.9258 413.879 89.0323 413.722 89.1715 413.543C89.3107 413.364 89.5039 413.207 89.7511 413.074C89.9982 412.938 90.3249 412.869 90.7312 412.869C91.2596 412.869 91.7312 413.003 92.146 413.27C92.5607 413.537 92.886 413.922 93.1218 414.425C93.3604 414.928 93.4798 415.533 93.4798 416.24C93.4798 416.947 93.3619 417.554 93.1261 418.06C92.8903 418.562 92.5664 418.95 92.1545 419.223C91.7425 419.493 91.2724 419.628 90.744 419.628C90.3462 419.628 90.021 419.561 89.7681 419.428C89.5181 419.294 89.3221 419.138 89.18 418.959C89.038 418.78 88.9286 418.621 88.8519 418.482H88.7752V421.955H87.5011ZM88.7496 416.227C88.7496 416.687 88.8164 417.091 88.9499 417.438C89.0835 417.784 89.2766 418.055 89.5295 418.251C89.7823 418.445 90.092 418.541 90.4585 418.541C90.8391 418.541 91.1573 418.44 91.413 418.239C91.6687 418.034 91.8619 417.757 91.9925 417.408C92.1261 417.058 92.1928 416.665 92.1928 416.227C92.1928 415.795 92.1275 415.408 91.9968 415.064C91.869 414.72 91.6758 414.449 91.4173 414.25C91.1616 414.051 90.842 413.952 90.4585 413.952C90.0891 413.952 89.7766 414.047 89.521 414.237C89.2681 414.428 89.0763 414.693 88.9457 415.034C88.815 415.375 88.7496 415.773 88.7496 416.227ZM96.565 418.307L96.5011 418.771C96.4585 419.112 96.386 419.467 96.2837 419.837C96.1843 420.209 96.0806 420.554 95.9727 420.872C95.8675 421.19 95.7809 421.443 95.7127 421.631H94.8093C94.8462 421.455 94.8974 421.216 94.9627 420.915C95.0281 420.616 95.092 420.283 95.1545 419.913C95.217 419.544 95.2638 419.168 95.2951 418.784L95.3377 418.307H96.565ZM101.4 419.5V412.955H104.114C104.853 412.955 105.438 413.112 105.87 413.428C106.301 413.74 106.517 414.165 106.517 414.702C106.517 415.085 106.395 415.389 106.151 415.614C105.907 415.838 105.583 415.989 105.179 416.065C105.472 416.099 105.74 416.187 105.985 416.33C106.229 416.469 106.425 416.656 106.573 416.892C106.723 417.128 106.799 417.409 106.799 417.736C106.799 418.082 106.709 418.389 106.53 418.656C106.351 418.92 106.091 419.128 105.75 419.278C105.412 419.426 105.005 419.5 104.527 419.5H101.4ZM102.597 418.435H104.527C104.843 418.435 105.09 418.359 105.269 418.209C105.448 418.058 105.537 417.854 105.537 417.595C105.537 417.291 105.448 417.053 105.269 416.879C105.09 416.703 104.843 416.615 104.527 416.615H102.597V418.435ZM102.597 415.682H104.127C104.365 415.682 104.57 415.648 104.74 415.58C104.914 415.511 105.046 415.415 105.137 415.29C105.23 415.162 105.277 415.011 105.277 414.838C105.277 414.585 105.174 414.388 104.966 414.246C104.759 414.104 104.475 414.033 104.114 414.033H102.597V415.682ZM115.276 419.5V414.041H113.707C113.335 414.041 113.045 414.128 112.838 414.301C112.631 414.474 112.527 414.702 112.527 414.983C112.527 415.261 112.622 415.486 112.812 415.656C113.006 415.824 113.276 415.908 113.622 415.908H115.646V416.939H113.622C113.139 416.939 112.722 416.859 112.369 416.7C112.02 416.538 111.75 416.31 111.56 416.014C111.372 415.719 111.278 415.369 111.278 414.966C111.278 414.554 111.375 414.199 111.568 413.901C111.764 413.599 112.044 413.366 112.408 413.202C112.774 413.037 113.207 412.955 113.707 412.955H116.473V419.5H115.276ZM110.98 419.5L112.825 416.193H114.129L112.284 419.5H110.98ZM118.169 419.5V412.955H119.443V415.699H120.057L122.217 412.955H123.794L121.259 416.138L123.824 419.5H122.243L120.27 416.884H119.443V419.5H118.169ZM127.301 419.632C126.688 419.632 126.152 419.491 125.695 419.21C125.237 418.929 124.882 418.536 124.629 418.03C124.376 417.524 124.25 416.933 124.25 416.257C124.25 415.578 124.376 414.984 124.629 414.476C124.882 413.967 125.237 413.572 125.695 413.291C126.152 413.01 126.688 412.869 127.301 412.869C127.915 412.869 128.45 413.01 128.908 413.291C129.365 413.572 129.72 413.967 129.973 414.476C130.226 414.984 130.352 415.578 130.352 416.257C130.352 416.933 130.226 417.524 129.973 418.03C129.72 418.536 129.365 418.929 128.908 419.21C128.45 419.491 127.915 419.632 127.301 419.632ZM127.305 418.562C127.703 418.562 128.033 418.457 128.294 418.247C128.555 418.037 128.749 417.757 128.874 417.408C129.001 417.058 129.065 416.673 129.065 416.253C129.065 415.835 129.001 415.452 128.874 415.102C128.749 414.75 128.555 414.467 128.294 414.254C128.033 414.041 127.703 413.935 127.305 413.935C126.905 413.935 126.572 414.041 126.308 414.254C126.047 414.467 125.852 414.75 125.724 415.102C125.599 415.452 125.537 415.835 125.537 416.253C125.537 416.673 125.599 417.058 125.724 417.408C125.852 417.757 126.047 418.037 126.308 418.247C126.572 418.457 126.905 418.562 127.305 418.562ZM135.448 417.923L137.561 412.955H138.661L135.921 419.5H134.975L132.29 412.955H133.377L135.448 417.923ZM133.023 412.955V419.5H131.775V412.955H133.023ZM137.907 419.5V412.955H139.147V419.5H137.907ZM141.416 421.955C141.225 421.955 141.052 421.939 140.896 421.908C140.74 421.879 140.623 421.848 140.547 421.814L140.853 420.77C141.086 420.832 141.294 420.859 141.475 420.851C141.657 420.842 141.818 420.774 141.957 420.646C142.099 420.518 142.224 420.31 142.332 420.02L142.49 419.585L140.095 412.955H141.458L143.116 418.034H143.184L144.842 412.955H146.21L143.512 420.374C143.387 420.714 143.228 421.003 143.035 421.239C142.842 421.477 142.612 421.656 142.345 421.776C142.078 421.895 141.768 421.955 141.416 421.955ZM150.195 417.77H151.499C151.516 418.037 151.637 418.243 151.862 418.388C152.089 418.533 152.383 418.605 152.744 418.605C153.11 418.605 153.423 418.527 153.681 418.371C153.94 418.212 154.069 417.966 154.069 417.634C154.069 417.435 154.019 417.261 153.92 417.114C153.823 416.963 153.685 416.847 153.506 416.764C153.33 416.682 153.121 416.641 152.88 416.641H151.815V415.639H152.88C153.241 415.639 153.511 415.557 153.69 415.392C153.869 415.227 153.958 415.021 153.958 414.774C153.958 414.507 153.862 414.293 153.668 414.131C153.478 413.966 153.212 413.884 152.871 413.884C152.525 413.884 152.237 413.962 152.006 414.118C151.776 414.271 151.656 414.47 151.644 414.714H150.357C150.366 414.348 150.477 414.027 150.69 413.751C150.906 413.473 151.195 413.257 151.559 413.104C151.925 412.947 152.342 412.869 152.808 412.869C153.293 412.869 153.714 412.947 154.069 413.104C154.424 413.26 154.698 413.476 154.891 413.751C155.087 414.027 155.185 414.344 155.185 414.702C155.185 415.062 155.077 415.358 154.862 415.588C154.648 415.815 154.37 415.979 154.026 416.078V416.146C154.279 416.163 154.504 416.24 154.7 416.376C154.896 416.513 155.049 416.693 155.16 416.918C155.271 417.142 155.326 417.396 155.326 417.68C155.326 418.081 155.215 418.428 154.994 418.72C154.775 419.013 154.471 419.239 154.082 419.398C153.695 419.554 153.254 419.632 152.756 419.632C152.273 419.632 151.84 419.557 151.457 419.406C151.076 419.253 150.773 419.037 150.549 418.759C150.327 418.48 150.21 418.151 150.195 417.77ZM160.315 417.923L162.429 412.955H163.528L160.788 419.5H159.842L157.157 412.955H158.244L160.315 417.923ZM157.89 412.955V419.5H156.642V412.955H157.89ZM162.774 419.5V412.955H164.014V419.5H162.774ZM168.469 419.632C167.855 419.632 167.32 419.491 166.863 419.21C166.405 418.929 166.05 418.536 165.797 418.03C165.544 417.524 165.418 416.933 165.418 416.257C165.418 415.578 165.544 414.984 165.797 414.476C166.05 413.967 166.405 413.572 166.863 413.291C167.32 413.01 167.855 412.869 168.469 412.869C169.083 412.869 169.618 413.01 170.076 413.291C170.533 413.572 170.888 413.967 171.141 414.476C171.394 414.984 171.52 415.578 171.52 416.257C171.52 416.933 171.394 417.524 171.141 418.03C170.888 418.536 170.533 418.929 170.076 419.21C169.618 419.491 169.083 419.632 168.469 419.632ZM168.473 418.562C168.871 418.562 169.201 418.457 169.462 418.247C169.723 418.037 169.917 417.757 170.042 417.408C170.169 417.058 170.233 416.673 170.233 416.253C170.233 415.835 170.169 415.452 170.042 415.102C169.917 414.75 169.723 414.467 169.462 414.254C169.201 414.041 168.871 413.935 168.473 413.935C168.073 413.935 167.74 414.041 167.476 414.254C167.215 414.467 167.02 414.75 166.892 415.102C166.767 415.452 166.705 415.835 166.705 416.253C166.705 416.673 166.767 417.058 166.892 417.408C167.02 417.757 167.215 418.037 167.476 418.247C167.74 418.457 168.073 418.562 168.473 418.562ZM172.267 419.5L174.803 416.151L172.297 412.955H173.78L175.804 415.673H176.26V412.955H177.534V415.673H177.977L180.001 412.955H181.484L178.991 416.151L181.514 419.5H180.001L177.96 416.773H177.534V419.5H176.26V416.773H175.834L173.78 419.5H172.267ZM185.373 419.632C184.728 419.632 184.173 419.494 183.707 419.219C183.244 418.94 182.886 418.55 182.633 418.047C182.383 417.541 182.258 416.949 182.258 416.27C182.258 415.599 182.383 415.009 182.633 414.497C182.886 413.986 183.238 413.587 183.69 413.3C184.144 413.013 184.675 412.869 185.283 412.869C185.653 412.869 186.011 412.93 186.357 413.053C186.704 413.175 187.015 413.366 187.29 413.628C187.566 413.889 187.783 414.229 187.942 414.646C188.102 415.061 188.181 415.565 188.181 416.159V416.611H182.978V415.656H186.933C186.933 415.321 186.864 415.024 186.728 414.766C186.592 414.504 186.4 414.298 186.153 414.148C185.908 413.997 185.621 413.922 185.292 413.922C184.934 413.922 184.621 414.01 184.354 414.186C184.09 414.359 183.886 414.587 183.741 414.868C183.599 415.146 183.528 415.449 183.528 415.776V416.521C183.528 416.959 183.604 417.331 183.758 417.638C183.914 417.945 184.131 418.179 184.41 418.341C184.688 418.5 185.013 418.58 185.386 418.58C185.627 418.58 185.847 418.545 186.046 418.477C186.245 418.406 186.417 418.301 186.562 418.162C186.707 418.023 186.817 417.851 186.894 417.646L188.1 417.864C188.004 418.219 187.83 418.53 187.58 418.797C187.333 419.061 187.022 419.267 186.647 419.415C186.275 419.56 185.85 419.632 185.373 419.632ZM189.595 412.955H190.843V418.396H193.106V412.955H194.355V418.396H196.618V412.955H197.866V419.5H189.595V412.955Z" fill="#171515"/>
<path d="M47.8565 424.955H49.1051V430.396H51.3679V424.955H52.6165V430.396H54.8793V424.955H56.1278V431.5H47.8565V424.955ZM57.8292 431.5V424.955H60.5437C61.2823 424.955 61.8675 425.112 62.2994 425.428C62.7312 425.74 62.9471 426.165 62.9471 426.702C62.9471 427.085 62.8249 427.389 62.5806 427.614C62.3363 427.838 62.0124 427.989 61.609 428.065C61.9016 428.099 62.1701 428.187 62.4144 428.33C62.6587 428.469 62.8548 428.656 63.0025 428.892C63.1531 429.128 63.2283 429.409 63.2283 429.736C63.2283 430.082 63.1388 430.389 62.9599 430.656C62.7809 430.92 62.521 431.128 62.18 431.278C61.842 431.426 61.4343 431.5 60.957 431.5H57.8292ZM59.0266 430.435H60.957C61.2724 430.435 61.5195 430.359 61.6985 430.209C61.8775 430.058 61.967 429.854 61.967 429.595C61.967 429.291 61.8775 429.053 61.6985 428.879C61.5195 428.703 61.2724 428.615 60.957 428.615H59.0266V430.435ZM59.0266 427.682H60.5565C60.7951 427.682 60.9996 427.648 61.1701 427.58C61.3434 427.511 61.4755 427.415 61.5664 427.29C61.6602 427.162 61.707 427.011 61.707 426.838C61.707 426.585 61.6033 426.388 61.396 426.246C61.1886 426.104 60.9045 426.033 60.5437 426.033H59.0266V427.682ZM65.8746 429.714L68.7596 424.955H70.1317V431.5H68.8832V426.736L66.011 431.5H64.6261V424.955H65.8746V429.714ZM71.2056 433.388V430.396H71.7383C71.8746 430.271 71.9897 430.122 72.0835 429.949C72.18 429.776 72.261 429.57 72.3263 429.331C72.3945 429.092 72.4513 428.814 72.4968 428.496C72.5423 428.175 72.582 427.808 72.6161 427.396L72.8207 424.955H77.2695V430.396H78.2752V433.388H77.0309V431.5H72.467V433.388H71.2056ZM73.1019 430.396H76.0252V426.045H73.9627L73.8263 427.396C73.761 428.084 73.6786 428.68 73.5792 429.186C73.4798 429.689 73.3207 430.092 73.1019 430.396ZM79.5206 431.5V424.955H80.7947V427.699H81.4084L83.5689 424.955H85.1456L82.6101 428.138L85.1754 431.5H83.5945L81.6214 428.884H80.7947V431.5H79.5206ZM88.6527 431.632C88.0391 431.632 87.5036 431.491 87.0462 431.21C86.5888 430.929 86.2337 430.536 85.9808 430.03C85.728 429.524 85.6016 428.933 85.6016 428.257C85.6016 427.578 85.728 426.984 85.9808 426.476C86.2337 425.967 86.5888 425.572 87.0462 425.291C87.5036 425.01 88.0391 424.869 88.6527 424.869C89.2663 424.869 89.8018 425.01 90.2592 425.291C90.7166 425.572 91.0717 425.967 91.3246 426.476C91.5774 426.984 91.7038 427.578 91.7038 428.257C91.7038 428.933 91.5774 429.524 91.3246 430.03C91.0717 430.536 90.7166 430.929 90.2592 431.21C89.8018 431.491 89.2663 431.632 88.6527 431.632ZM88.657 430.562C89.0547 430.562 89.3842 430.457 89.6456 430.247C89.907 430.037 90.1001 429.757 90.2251 429.408C90.353 429.058 90.4169 428.673 90.4169 428.253C90.4169 427.835 90.353 427.452 90.2251 427.102C90.1001 426.75 89.907 426.467 89.6456 426.254C89.3842 426.041 89.0547 425.935 88.657 425.935C88.2564 425.935 87.924 426.041 87.6598 426.254C87.3984 426.467 87.2038 426.75 87.076 427.102C86.951 427.452 86.8885 427.835 86.8885 428.253C86.8885 428.673 86.951 429.058 87.076 429.408C87.2038 429.757 87.3984 430.037 87.6598 430.247C87.924 430.457 88.2564 430.562 88.657 430.562ZM95.9141 429.77H97.218C97.2351 430.037 97.3558 430.243 97.5803 430.388C97.8075 430.533 98.1016 430.605 98.4624 430.605C98.8288 430.605 99.1413 430.527 99.3999 430.371C99.6584 430.212 99.7876 429.966 99.7876 429.634C99.7876 429.435 99.7379 429.261 99.6385 429.114C99.5419 428.963 99.4041 428.847 99.2251 428.764C99.049 428.682 98.8402 428.641 98.5987 428.641H97.5334V427.639H98.5987C98.9595 427.639 99.2294 427.557 99.4084 427.392C99.5874 427.227 99.6768 427.021 99.6768 426.774C99.6768 426.507 99.5803 426.293 99.3871 426.131C99.1967 425.966 98.9311 425.884 98.5902 425.884C98.2436 425.884 97.9553 425.962 97.7251 426.118C97.495 426.271 97.3743 426.47 97.3629 426.714H96.076C96.0845 426.348 96.1953 426.027 96.4084 425.751C96.6243 425.473 96.9141 425.257 97.2777 425.104C97.6442 424.947 98.0604 424.869 98.5263 424.869C99.0121 424.869 99.4325 424.947 99.7876 425.104C100.143 425.26 100.417 425.476 100.61 425.751C100.806 426.027 100.904 426.344 100.904 426.702C100.904 427.062 100.796 427.358 100.58 427.588C100.367 427.815 100.089 427.979 99.745 428.078V428.146C99.9979 428.163 100.222 428.24 100.418 428.376C100.614 428.513 100.768 428.693 100.879 428.918C100.989 429.142 101.045 429.396 101.045 429.68C101.045 430.081 100.934 430.428 100.712 430.72C100.494 431.013 100.19 431.239 99.8004 431.398C99.4141 431.554 98.9723 431.632 98.4751 431.632C97.9922 431.632 97.5589 431.557 97.1754 431.406C96.7947 431.253 96.4922 431.037 96.2678 430.759C96.0462 430.48 95.9283 430.151 95.9141 429.77ZM102.36 433.955V424.955H103.605V426.016H103.711C103.785 425.879 103.892 425.722 104.031 425.543C104.17 425.364 104.363 425.207 104.61 425.074C104.858 424.938 105.184 424.869 105.591 424.869C106.119 424.869 106.591 425.003 107.005 425.27C107.42 425.537 107.745 425.922 107.981 426.425C108.22 426.928 108.339 427.533 108.339 428.24C108.339 428.947 108.221 429.554 107.985 430.06C107.75 430.562 107.426 430.95 107.014 431.223C106.602 431.493 106.132 431.628 105.603 431.628C105.206 431.628 104.88 431.561 104.627 431.428C104.377 431.294 104.181 431.138 104.039 430.959C103.897 430.78 103.788 430.621 103.711 430.482H103.635V433.955H102.36ZM103.609 428.227C103.609 428.687 103.676 429.091 103.809 429.438C103.943 429.784 104.136 430.055 104.389 430.251C104.642 430.445 104.951 430.541 105.318 430.541C105.699 430.541 106.017 430.44 106.272 430.239C106.528 430.034 106.721 429.757 106.852 429.408C106.985 429.058 107.052 428.665 107.052 428.227C107.052 427.795 106.987 427.408 106.856 427.064C106.728 426.72 106.535 426.449 106.277 426.25C106.021 426.051 105.701 425.952 105.318 425.952C104.949 425.952 104.636 426.047 104.38 426.237C104.127 426.428 103.936 426.693 103.805 427.034C103.674 427.375 103.609 427.773 103.609 428.227ZM112.524 431.632C111.91 431.632 111.375 431.491 110.917 431.21C110.46 430.929 110.105 430.536 109.852 430.03C109.599 429.524 109.473 428.933 109.473 428.257C109.473 427.578 109.599 426.984 109.852 426.476C110.105 425.967 110.46 425.572 110.917 425.291C111.375 425.01 111.91 424.869 112.524 424.869C113.137 424.869 113.673 425.01 114.13 425.291C114.588 425.572 114.943 425.967 115.196 426.476C115.449 426.984 115.575 427.578 115.575 428.257C115.575 428.933 115.449 429.524 115.196 430.03C114.943 430.536 114.588 430.929 114.13 431.21C113.673 431.491 113.137 431.632 112.524 431.632ZM112.528 430.562C112.926 430.562 113.255 430.457 113.517 430.247C113.778 430.037 113.971 429.757 114.096 429.408C114.224 429.058 114.288 428.673 114.288 428.253C114.288 427.835 114.224 427.452 114.096 427.102C113.971 426.75 113.778 426.467 113.517 426.254C113.255 426.041 112.926 425.935 112.528 425.935C112.127 425.935 111.795 426.041 111.531 426.254C111.27 426.467 111.075 426.75 110.947 427.102C110.822 427.452 110.76 427.835 110.76 428.253C110.76 428.673 110.822 429.058 110.947 429.408C111.075 429.757 111.27 430.037 111.531 430.247C111.795 430.457 112.127 430.562 112.528 430.562ZM119.754 431.632C119.121 431.632 118.575 431.489 118.118 431.202C117.663 430.912 117.314 430.513 117.07 430.004C116.825 429.496 116.703 428.913 116.703 428.257C116.703 427.592 116.828 427.006 117.078 426.497C117.328 425.986 117.68 425.587 118.135 425.3C118.589 425.013 119.125 424.869 119.741 424.869C120.239 424.869 120.682 424.962 121.071 425.146C121.46 425.328 121.774 425.584 122.013 425.913C122.254 426.243 122.398 426.628 122.443 427.068H121.203C121.135 426.761 120.979 426.497 120.734 426.276C120.493 426.054 120.169 425.943 119.763 425.943C119.408 425.943 119.097 426.037 118.83 426.224C118.565 426.409 118.359 426.673 118.212 427.017C118.064 427.358 117.99 427.761 117.99 428.227C117.99 428.705 118.063 429.116 118.207 429.463C118.352 429.81 118.557 430.078 118.821 430.268C119.088 430.459 119.402 430.554 119.763 430.554C120.004 430.554 120.223 430.51 120.419 430.422C120.618 430.331 120.784 430.202 120.918 430.034C121.054 429.866 121.149 429.665 121.203 429.429H122.443C122.398 429.852 122.26 430.23 122.03 430.562C121.8 430.895 121.491 431.156 121.105 431.347C120.722 431.537 120.271 431.632 119.754 431.632ZM123.31 426.054V424.955H128.833V426.054H126.698V431.5H125.454V426.054H123.31ZM131.781 431.645C131.366 431.645 130.991 431.568 130.656 431.415C130.321 431.259 130.055 431.033 129.859 430.737C129.666 430.442 129.569 430.08 129.569 429.651C129.569 429.281 129.64 428.977 129.782 428.739C129.924 428.5 130.116 428.311 130.358 428.172C130.599 428.033 130.869 427.928 131.167 427.857C131.466 427.786 131.77 427.732 132.079 427.695C132.471 427.649 132.789 427.612 133.034 427.584C133.278 427.553 133.456 427.503 133.566 427.435C133.677 427.366 133.733 427.256 133.733 427.102V427.072C133.733 426.7 133.627 426.412 133.417 426.207C133.21 426.003 132.9 425.901 132.488 425.901C132.059 425.901 131.721 425.996 131.474 426.186C131.23 426.374 131.061 426.582 130.967 426.812L129.77 426.54C129.912 426.142 130.119 425.821 130.392 425.577C130.667 425.33 130.984 425.151 131.342 425.04C131.7 424.926 132.076 424.869 132.471 424.869C132.733 424.869 133.01 424.901 133.302 424.963C133.598 425.023 133.873 425.134 134.129 425.295C134.387 425.457 134.599 425.689 134.764 425.99C134.929 426.288 135.011 426.676 135.011 427.153V431.5H133.767V430.605H133.716C133.633 430.77 133.51 430.932 133.345 431.091C133.18 431.25 132.968 431.382 132.71 431.487C132.451 431.592 132.142 431.645 131.781 431.645ZM132.058 430.622C132.41 430.622 132.711 430.553 132.961 430.413C133.214 430.274 133.406 430.092 133.537 429.868C133.67 429.641 133.737 429.398 133.737 429.139V428.295C133.691 428.341 133.603 428.384 133.473 428.423C133.345 428.46 133.199 428.493 133.034 428.521C132.869 428.547 132.708 428.571 132.552 428.594C132.396 428.614 132.265 428.631 132.16 428.645C131.913 428.676 131.687 428.729 131.483 428.803C131.281 428.876 131.119 428.983 130.997 429.122C130.877 429.259 130.818 429.44 130.818 429.668C130.818 429.983 130.934 430.222 131.167 430.384C131.4 430.543 131.697 430.622 132.058 430.622ZM135.896 426.054V424.955H141.419V426.054H139.284V431.5H138.04V426.054H135.896ZM144.015 429.714L146.9 424.955H148.272V431.5H147.024V426.736L144.152 431.5H142.767V424.955H144.015V429.714Z" fill="#171515"/>
<path d="M62.9498 484.185L64.5974 469.707M64.5974 469.707L50.0538 468.816M64.5974 469.707L48.4062 483.293" stroke="#171515" stroke-width="1.5" stroke-linecap="round" stroke-linejoin="round"/>
</g>
<g filter="url(#filter1_d_589_28)">
<rect x="275" y="323" width="249" height="223" rx="20" fill="#CE0FFF" shape-rendering="crispEdges"/>
<path d="M333.278 383.938H330.79C330.744 383.616 330.652 383.33 330.511 383.08C330.371 382.826 330.191 382.61 329.972 382.432C329.752 382.254 329.498 382.117 329.21 382.023C328.926 381.928 328.617 381.881 328.284 381.881C327.682 381.881 327.157 382.03 326.71 382.33C326.263 382.625 325.917 383.057 325.67 383.625C325.424 384.189 325.301 384.875 325.301 385.682C325.301 386.511 325.424 387.208 325.67 387.773C325.92 388.337 326.269 388.763 326.716 389.051C327.163 389.339 327.68 389.483 328.267 389.483C328.597 389.483 328.902 389.439 329.182 389.352C329.466 389.265 329.718 389.138 329.938 388.972C330.157 388.801 330.339 388.595 330.483 388.352C330.631 388.11 330.733 387.833 330.79 387.523L333.278 387.534C333.214 388.068 333.053 388.583 332.795 389.08C332.542 389.572 332.199 390.013 331.767 390.403C331.339 390.79 330.828 391.097 330.233 391.324C329.642 391.547 328.973 391.659 328.227 391.659C327.189 391.659 326.261 391.424 325.443 390.955C324.629 390.485 323.985 389.805 323.511 388.915C323.042 388.025 322.807 386.947 322.807 385.682C322.807 384.413 323.045 383.333 323.523 382.443C324 381.553 324.648 380.875 325.466 380.409C326.284 379.939 327.205 379.705 328.227 379.705C328.902 379.705 329.527 379.799 330.102 379.989C330.682 380.178 331.195 380.455 331.642 380.818C332.089 381.178 332.453 381.619 332.733 382.142C333.017 382.665 333.199 383.263 333.278 383.938ZM334.543 384.676V382.773H342.452V384.676H339.639V391.5H337.332V384.676H334.543ZM346.095 391.665C345.538 391.665 345.042 391.568 344.607 391.375C344.171 391.178 343.826 390.888 343.572 390.506C343.322 390.119 343.197 389.638 343.197 389.062C343.197 388.578 343.286 388.17 343.464 387.841C343.643 387.511 343.885 387.246 344.192 387.045C344.499 386.845 344.847 386.693 345.237 386.591C345.631 386.489 346.044 386.417 346.476 386.375C346.983 386.322 347.393 386.273 347.703 386.227C348.014 386.178 348.239 386.106 348.379 386.011C348.519 385.917 348.589 385.777 348.589 385.591V385.557C348.589 385.197 348.476 384.919 348.249 384.722C348.025 384.525 347.707 384.426 347.294 384.426C346.858 384.426 346.512 384.523 346.254 384.716C345.997 384.905 345.826 385.144 345.743 385.432L343.504 385.25C343.618 384.72 343.841 384.261 344.175 383.875C344.508 383.485 344.938 383.186 345.464 382.977C345.995 382.765 346.608 382.659 347.305 382.659C347.79 382.659 348.254 382.716 348.697 382.83C349.144 382.943 349.54 383.119 349.885 383.358C350.233 383.597 350.508 383.903 350.709 384.278C350.91 384.65 351.01 385.095 351.01 385.614V391.5H348.714V390.29H348.646C348.506 390.562 348.319 390.803 348.084 391.011C347.849 391.216 347.567 391.377 347.237 391.494C346.908 391.608 346.527 391.665 346.095 391.665ZM346.788 389.994C347.144 389.994 347.459 389.924 347.732 389.784C348.004 389.64 348.218 389.447 348.374 389.205C348.529 388.962 348.607 388.687 348.607 388.381V387.455C348.531 387.504 348.427 387.549 348.294 387.591C348.165 387.629 348.019 387.665 347.857 387.699C347.694 387.729 347.531 387.758 347.368 387.784C347.205 387.807 347.057 387.828 346.925 387.847C346.641 387.888 346.393 387.955 346.18 388.045C345.968 388.136 345.804 388.259 345.686 388.415C345.569 388.566 345.51 388.756 345.51 388.983C345.51 389.312 345.629 389.564 345.868 389.739C346.11 389.909 346.417 389.994 346.788 389.994ZM352.888 394.773V382.773H355.274V384.239H355.382C355.488 384.004 355.642 383.765 355.842 383.523C356.047 383.277 356.312 383.072 356.638 382.909C356.967 382.742 357.376 382.659 357.865 382.659C358.501 382.659 359.089 382.826 359.626 383.159C360.164 383.489 360.594 383.987 360.916 384.653C361.238 385.316 361.399 386.148 361.399 387.148C361.399 388.121 361.242 388.943 360.928 389.614C360.617 390.28 360.193 390.786 359.655 391.131C359.121 391.472 358.522 391.642 357.859 391.642C357.39 391.642 356.99 391.564 356.661 391.409C356.335 391.254 356.068 391.059 355.859 390.824C355.651 390.585 355.492 390.345 355.382 390.102H355.308V394.773H352.888ZM355.257 387.136C355.257 387.655 355.329 388.108 355.473 388.494C355.617 388.881 355.825 389.182 356.098 389.398C356.371 389.61 356.702 389.716 357.092 389.716C357.486 389.716 357.82 389.608 358.092 389.392C358.365 389.172 358.571 388.869 358.712 388.483C358.856 388.093 358.928 387.644 358.928 387.136C358.928 386.633 358.857 386.189 358.717 385.807C358.577 385.424 358.371 385.125 358.098 384.909C357.825 384.693 357.49 384.585 357.092 384.585C356.698 384.585 356.365 384.689 356.092 384.898C355.823 385.106 355.617 385.402 355.473 385.784C355.329 386.167 355.257 386.617 355.257 387.136ZM362.168 384.676V382.773H370.077V384.676H367.264V391.5H364.957V384.676H362.168ZM373.72 391.665C373.163 391.665 372.667 391.568 372.232 391.375C371.796 391.178 371.451 390.888 371.197 390.506C370.947 390.119 370.822 389.638 370.822 389.062C370.822 388.578 370.911 388.17 371.089 387.841C371.268 387.511 371.51 387.246 371.817 387.045C372.124 386.845 372.472 386.693 372.862 386.591C373.256 386.489 373.669 386.417 374.101 386.375C374.608 386.322 375.018 386.273 375.328 386.227C375.639 386.178 375.864 386.106 376.004 386.011C376.144 385.917 376.214 385.777 376.214 385.591V385.557C376.214 385.197 376.101 384.919 375.874 384.722C375.65 384.525 375.332 384.426 374.919 384.426C374.483 384.426 374.137 384.523 373.879 384.716C373.622 384.905 373.451 385.144 373.368 385.432L371.129 385.25C371.243 384.72 371.466 384.261 371.8 383.875C372.133 383.485 372.563 383.186 373.089 382.977C373.62 382.765 374.233 382.659 374.93 382.659C375.415 382.659 375.879 382.716 376.322 382.83C376.769 382.943 377.165 383.119 377.51 383.358C377.858 383.597 378.133 383.903 378.334 384.278C378.535 384.65 378.635 385.095 378.635 385.614V391.5H376.339V390.29H376.271C376.131 390.562 375.944 390.803 375.709 391.011C375.474 391.216 375.192 391.377 374.862 391.494C374.533 391.608 374.152 391.665 373.72 391.665ZM374.413 389.994C374.769 389.994 375.084 389.924 375.357 389.784C375.629 389.64 375.843 389.447 375.999 389.205C376.154 388.962 376.232 388.687 376.232 388.381V387.455C376.156 387.504 376.052 387.549 375.919 387.591C375.79 387.629 375.644 387.665 375.482 387.699C375.319 387.729 375.156 387.758 374.993 387.784C374.83 387.807 374.682 387.828 374.55 387.847C374.266 387.888 374.018 387.955 373.805 388.045C373.593 388.136 373.429 388.259 373.311 388.415C373.194 388.566 373.135 388.756 373.135 388.983C373.135 389.312 373.254 389.564 373.493 389.739C373.735 389.909 374.042 389.994 374.413 389.994ZM380.513 391.5V382.773H388.143V391.5H385.831V384.676H382.797V391.5H380.513ZM395.513 385.761V387.682H390.206V385.761H395.513ZM397.575 391.5V382.773H405.206V391.5H402.893V384.676H399.859V391.5H397.575ZM407.138 394.773V382.773H409.524V384.239H409.632C409.738 384.004 409.892 383.765 410.092 383.523C410.297 383.277 410.562 383.072 410.888 382.909C411.217 382.742 411.626 382.659 412.115 382.659C412.751 382.659 413.339 382.826 413.876 383.159C414.414 383.489 414.844 383.987 415.166 384.653C415.488 385.316 415.649 386.148 415.649 387.148C415.649 388.121 415.492 388.943 415.178 389.614C414.867 390.28 414.443 390.786 413.905 391.131C413.371 391.472 412.772 391.642 412.109 391.642C411.64 391.642 411.24 391.564 410.911 391.409C410.585 391.254 410.318 391.059 410.109 390.824C409.901 390.585 409.742 390.345 409.632 390.102H409.558V394.773H407.138ZM409.507 387.136C409.507 387.655 409.579 388.108 409.723 388.494C409.867 388.881 410.075 389.182 410.348 389.398C410.621 389.61 410.952 389.716 411.342 389.716C411.736 389.716 412.07 389.608 412.342 389.392C412.615 389.172 412.821 388.869 412.962 388.483C413.106 388.093 413.178 387.644 413.178 387.136C413.178 386.633 413.107 386.189 412.967 385.807C412.827 385.424 412.621 385.125 412.348 384.909C412.075 384.693 411.74 384.585 411.342 384.585C410.948 384.585 410.615 384.689 410.342 384.898C410.073 385.106 409.867 385.402 409.723 385.784C409.579 386.167 409.507 386.617 409.507 387.136ZM421.206 391.67C420.323 391.67 419.56 391.483 418.916 391.108C418.276 390.729 417.782 390.203 417.433 389.528C417.085 388.85 416.911 388.064 416.911 387.17C416.911 386.269 417.085 385.481 417.433 384.807C417.782 384.129 418.276 383.602 418.916 383.227C419.56 382.848 420.323 382.659 421.206 382.659C422.089 382.659 422.85 382.848 423.49 383.227C424.134 383.602 424.63 384.129 424.979 384.807C425.327 385.481 425.501 386.269 425.501 387.17C425.501 388.064 425.327 388.85 424.979 389.528C424.63 390.203 424.134 390.729 423.49 391.108C422.85 391.483 422.089 391.67 421.206 391.67ZM421.217 389.795C421.619 389.795 421.954 389.682 422.223 389.455C422.492 389.223 422.695 388.909 422.831 388.511C422.971 388.114 423.041 387.661 423.041 387.153C423.041 386.646 422.971 386.193 422.831 385.795C422.695 385.398 422.492 385.083 422.223 384.852C421.954 384.621 421.619 384.506 421.217 384.506C420.812 384.506 420.471 384.621 420.195 384.852C419.922 385.083 419.715 385.398 419.575 385.795C419.439 386.193 419.371 386.646 419.371 387.153C419.371 387.661 419.439 388.114 419.575 388.511C419.715 388.909 419.922 389.223 420.195 389.455C420.471 389.682 420.812 389.795 421.217 389.795ZM431.053 391.67C430.155 391.67 429.382 391.489 428.734 391.125C428.09 390.758 427.594 390.239 427.246 389.568C426.897 388.894 426.723 388.097 426.723 387.176C426.723 386.278 426.897 385.491 427.246 384.812C427.594 384.134 428.085 383.606 428.717 383.227C429.354 382.848 430.1 382.659 430.956 382.659C431.532 382.659 432.068 382.752 432.564 382.938C433.064 383.119 433.5 383.394 433.871 383.761C434.246 384.129 434.537 384.591 434.746 385.148C434.954 385.701 435.058 386.348 435.058 387.091V387.756H427.689V386.256H432.78C432.78 385.907 432.704 385.598 432.553 385.33C432.401 385.061 432.191 384.85 431.922 384.699C431.657 384.544 431.348 384.466 430.996 384.466C430.628 384.466 430.303 384.551 430.018 384.722C429.738 384.888 429.518 385.114 429.359 385.398C429.2 385.678 429.119 385.991 429.115 386.335V387.761C429.115 388.193 429.195 388.566 429.354 388.881C429.517 389.195 429.746 389.438 430.041 389.608C430.337 389.778 430.687 389.864 431.092 389.864C431.361 389.864 431.607 389.826 431.831 389.75C432.054 389.674 432.246 389.561 432.405 389.409C432.564 389.258 432.685 389.072 432.768 388.852L435.007 389C434.893 389.538 434.661 390.008 434.308 390.409C433.96 390.807 433.509 391.117 432.956 391.341C432.407 391.561 431.772 391.67 431.053 391.67ZM436.638 391.5V382.773H439.058V386.159H439.74L442.115 382.773H444.956L441.871 387.102L444.99 391.5H442.115L439.962 388.403H439.058V391.5H436.638ZM445.558 384.676V382.773H453.467V384.676H450.655V391.5H448.348V384.676H445.558ZM457.247 388.307L460.389 382.773H462.776V391.5H460.469V385.949L457.338 391.5H454.935V382.773H457.247V388.307Z" fill="black"/>
<path d="M322.298 421.609V418.384H322.874C323.07 418.219 323.253 417.984 323.423 417.68C323.594 417.376 323.739 416.966 323.858 416.449C323.977 415.932 324.06 415.268 324.105 414.459L324.31 410.773H329.692V418.384H330.68V421.597H329.419V419.5H323.56V421.609H322.298ZM324.425 418.384H328.43V411.906H325.503L325.366 414.459C325.33 415.075 325.268 415.629 325.183 416.121C325.101 416.612 324.994 417.047 324.864 417.425C324.736 417.8 324.589 418.119 324.425 418.384ZM334.778 419.632C334.164 419.632 333.629 419.491 333.171 419.21C332.714 418.929 332.359 418.536 332.106 418.03C331.853 417.524 331.727 416.933 331.727 416.257C331.727 415.578 331.853 414.984 332.106 414.476C332.359 413.967 332.714 413.572 333.171 413.291C333.629 413.01 334.164 412.869 334.778 412.869C335.391 412.869 335.927 413.01 336.384 413.291C336.842 413.572 337.197 413.967 337.45 414.476C337.702 414.984 337.829 415.578 337.829 416.257C337.829 416.933 337.702 417.524 337.45 418.03C337.197 418.536 336.842 418.929 336.384 419.21C335.927 419.491 335.391 419.632 334.778 419.632ZM334.782 418.562C335.18 418.562 335.509 418.457 335.771 418.247C336.032 418.037 336.225 417.757 336.35 417.408C336.478 417.058 336.542 416.673 336.542 416.253C336.542 415.835 336.478 415.452 336.35 415.102C336.225 414.75 336.032 414.467 335.771 414.254C335.509 414.041 335.18 413.935 334.782 413.935C334.381 413.935 334.049 414.041 333.785 414.254C333.523 414.467 333.329 414.75 333.201 415.102C333.076 415.452 333.013 415.835 333.013 416.253C333.013 416.673 333.076 417.058 333.201 417.408C333.329 417.757 333.523 418.037 333.785 418.247C334.049 418.457 334.381 418.562 334.782 418.562ZM342.427 421.955V412.955H343.671V414.016H343.778C343.852 413.879 343.958 413.722 344.097 413.543C344.237 413.364 344.43 413.207 344.677 413.074C344.924 412.938 345.251 412.869 345.657 412.869C346.185 412.869 346.657 413.003 347.072 413.27C347.487 413.537 347.812 413.922 348.048 414.425C348.286 414.928 348.406 415.533 348.406 416.24C348.406 416.947 348.288 417.554 348.052 418.06C347.816 418.562 347.492 418.95 347.08 419.223C346.668 419.493 346.198 419.628 345.67 419.628C345.272 419.628 344.947 419.561 344.694 419.428C344.444 419.294 344.248 419.138 344.106 418.959C343.964 418.78 343.854 418.621 343.778 418.482H343.701V421.955H342.427ZM343.675 416.227C343.675 416.687 343.742 417.091 343.876 417.438C344.009 417.784 344.202 418.055 344.455 418.251C344.708 418.445 345.018 418.541 345.384 418.541C345.765 418.541 346.083 418.44 346.339 418.239C346.594 418.034 346.788 417.757 346.918 417.408C347.052 417.058 347.119 416.665 347.119 416.227C347.119 415.795 347.053 415.408 346.923 415.064C346.795 414.72 346.602 414.449 346.343 414.25C346.087 414.051 345.768 413.952 345.384 413.952C345.015 413.952 344.702 414.047 344.447 414.237C344.194 414.428 344.002 414.693 343.871 415.034C343.741 415.375 343.675 415.773 343.675 416.227ZM352.59 419.632C351.977 419.632 351.441 419.491 350.984 419.21C350.526 418.929 350.171 418.536 349.918 418.03C349.665 417.524 349.539 416.933 349.539 416.257C349.539 415.578 349.665 414.984 349.918 414.476C350.171 413.967 350.526 413.572 350.984 413.291C351.441 413.01 351.977 412.869 352.59 412.869C353.204 412.869 353.739 413.01 354.197 413.291C354.654 413.572 355.009 413.967 355.262 414.476C355.515 414.984 355.641 415.578 355.641 416.257C355.641 416.933 355.515 417.524 355.262 418.03C355.009 418.536 354.654 418.929 354.197 419.21C353.739 419.491 353.204 419.632 352.59 419.632ZM352.594 418.562C352.992 418.562 353.322 418.457 353.583 418.247C353.844 418.037 354.038 417.757 354.163 417.408C354.29 417.058 354.354 416.673 354.354 416.253C354.354 415.835 354.29 415.452 354.163 415.102C354.038 414.75 353.844 414.467 353.583 414.254C353.322 414.041 352.992 413.935 352.594 413.935C352.194 413.935 351.862 414.041 351.597 414.254C351.336 414.467 351.141 414.75 351.013 415.102C350.888 415.452 350.826 415.835 350.826 416.253C350.826 416.673 350.888 417.058 351.013 417.408C351.141 417.757 351.336 418.037 351.597 418.247C351.862 418.457 352.194 418.562 352.594 418.562ZM356.676 417.77H357.98C357.997 418.037 358.118 418.243 358.342 418.388C358.569 418.533 358.863 418.605 359.224 418.605C359.591 418.605 359.903 418.527 360.162 418.371C360.42 418.212 360.549 417.966 360.549 417.634C360.549 417.435 360.5 417.261 360.4 417.114C360.304 416.963 360.166 416.847 359.987 416.764C359.811 416.682 359.602 416.641 359.36 416.641H358.295V415.639H359.36C359.721 415.639 359.991 415.557 360.17 415.392C360.349 415.227 360.439 415.021 360.439 414.774C360.439 414.507 360.342 414.293 360.149 414.131C359.958 413.966 359.693 413.884 359.352 413.884C359.005 413.884 358.717 413.962 358.487 414.118C358.257 414.271 358.136 414.47 358.125 414.714H356.838C356.846 414.348 356.957 414.027 357.17 413.751C357.386 413.473 357.676 413.257 358.039 413.104C358.406 412.947 358.822 412.869 359.288 412.869C359.774 412.869 360.194 412.947 360.549 413.104C360.904 413.26 361.179 413.476 361.372 413.751C361.568 414.027 361.666 414.344 361.666 414.702C361.666 415.062 361.558 415.358 361.342 415.588C361.129 415.815 360.85 415.979 360.507 416.078V416.146C360.76 416.163 360.984 416.24 361.18 416.376C361.376 416.513 361.529 416.693 361.64 416.918C361.751 417.142 361.806 417.396 361.806 417.68C361.806 418.081 361.696 418.428 361.474 418.72C361.255 419.013 360.951 419.239 360.562 419.398C360.176 419.554 359.734 419.632 359.237 419.632C358.754 419.632 358.321 419.557 357.937 419.406C357.556 419.253 357.254 419.037 357.029 418.759C356.808 418.48 356.69 418.151 356.676 417.77ZM363.122 421.955V412.955H364.366V414.016H364.473C364.547 413.879 364.653 413.722 364.793 413.543C364.932 413.364 365.125 413.207 365.372 413.074C365.619 412.938 365.946 412.869 366.352 412.869C366.881 412.869 367.352 413.003 367.767 413.27C368.182 413.537 368.507 413.922 368.743 414.425C368.982 414.928 369.101 415.533 369.101 416.24C369.101 416.947 368.983 417.554 368.747 418.06C368.511 418.562 368.188 418.95 367.776 419.223C367.364 419.493 366.893 419.628 366.365 419.628C365.967 419.628 365.642 419.561 365.389 419.428C365.139 419.294 364.943 419.138 364.801 418.959C364.659 418.78 364.55 418.621 364.473 418.482H364.396V421.955H363.122ZM364.371 416.227C364.371 416.687 364.438 417.091 364.571 417.438C364.705 417.784 364.898 418.055 365.151 418.251C365.403 418.445 365.713 418.541 366.08 418.541C366.46 418.541 366.778 418.44 367.034 418.239C367.29 418.034 367.483 417.757 367.614 417.408C367.747 417.058 367.814 416.665 367.814 416.227C367.814 415.795 367.749 415.408 367.618 415.064C367.49 414.72 367.297 414.449 367.038 414.25C366.783 414.051 366.463 413.952 366.08 413.952C365.71 413.952 365.398 414.047 365.142 414.237C364.889 414.428 364.697 414.693 364.567 415.034C364.436 415.375 364.371 415.773 364.371 416.227ZM373.286 419.632C372.672 419.632 372.136 419.491 371.679 419.21C371.222 418.929 370.866 418.536 370.614 418.03C370.361 417.524 370.234 416.933 370.234 416.257C370.234 415.578 370.361 414.984 370.614 414.476C370.866 413.967 371.222 413.572 371.679 413.291C372.136 413.01 372.672 412.869 373.286 412.869C373.899 412.869 374.435 413.01 374.892 413.291C375.349 413.572 375.705 413.967 375.957 414.476C376.21 414.984 376.337 415.578 376.337 416.257C376.337 416.933 376.21 417.524 375.957 418.03C375.705 418.536 375.349 418.929 374.892 419.21C374.435 419.491 373.899 419.632 373.286 419.632ZM373.29 418.562C373.688 418.562 374.017 418.457 374.278 418.247C374.54 418.037 374.733 417.757 374.858 417.408C374.986 417.058 375.05 416.673 375.05 416.253C375.05 415.835 374.986 415.452 374.858 415.102C374.733 414.75 374.54 414.467 374.278 414.254C374.017 414.041 373.688 413.935 373.29 413.935C372.889 413.935 372.557 414.041 372.293 414.254C372.031 414.467 371.837 414.75 371.709 415.102C371.584 415.452 371.521 415.835 371.521 416.253C371.521 416.673 371.584 417.058 371.709 417.408C371.837 417.757 372.031 418.037 372.293 418.247C372.557 418.457 372.889 418.562 373.29 418.562ZM382.809 410.517L383.337 411.322C383.141 411.501 382.918 411.629 382.668 411.706C382.421 411.78 382.135 411.827 381.811 411.847C381.488 411.864 381.117 411.879 380.699 411.893C380.228 411.908 379.84 412.01 379.536 412.2C379.232 412.388 378.998 412.666 378.833 413.036C378.671 413.402 378.566 413.862 378.517 414.416H378.598C378.811 414.01 379.107 413.706 379.485 413.504C379.865 413.303 380.293 413.202 380.767 413.202C381.296 413.202 381.766 413.322 382.178 413.564C382.59 413.805 382.914 414.159 383.15 414.625C383.388 415.088 383.507 415.655 383.507 416.325C383.507 417.004 383.382 417.591 383.132 418.085C382.885 418.58 382.536 418.962 382.084 419.232C381.635 419.499 381.105 419.632 380.495 419.632C379.884 419.632 379.351 419.494 378.897 419.219C378.445 418.94 378.094 418.528 377.844 417.983C377.597 417.437 377.473 416.764 377.473 415.963V415.315C377.473 413.818 377.74 412.692 378.275 411.936C378.809 411.18 379.607 410.793 380.669 410.773C381.013 410.764 381.32 410.763 381.59 410.768C381.86 410.771 382.096 410.759 382.297 410.73C382.502 410.699 382.672 410.628 382.809 410.517ZM380.499 418.562C380.854 418.562 381.159 418.473 381.415 418.294C381.674 418.112 381.873 417.855 382.012 417.523C382.151 417.19 382.221 416.798 382.221 416.347C382.221 415.903 382.151 415.527 382.012 415.217C381.873 414.908 381.674 414.672 381.415 414.51C381.157 414.345 380.847 414.263 380.486 414.263C380.219 414.263 379.98 414.31 379.77 414.403C379.56 414.494 379.38 414.629 379.229 414.808C379.081 414.987 378.966 415.206 378.884 415.464C378.804 415.72 378.762 416.014 378.756 416.347C378.756 417.023 378.911 417.561 379.221 417.962C379.533 418.362 379.959 418.562 380.499 418.562ZM384.931 419.5V412.955H386.205V415.699H386.819L388.979 412.955H390.556L388.02 416.138L390.586 419.5H389.005L387.032 416.884H386.205V419.5H384.931ZM392.824 417.714L395.709 412.955H397.081V419.5H395.832V414.736L392.96 419.5H391.575V412.955H392.824V417.714ZM405.873 419.5V414.041H404.305C403.933 414.041 403.643 414.128 403.436 414.301C403.228 414.474 403.125 414.702 403.125 414.983C403.125 415.261 403.22 415.486 403.41 415.656C403.603 415.824 403.873 415.908 404.22 415.908H406.244V416.939H404.22C403.737 416.939 403.319 416.859 402.967 416.7C402.618 416.538 402.348 416.31 402.157 416.014C401.97 415.719 401.876 415.369 401.876 414.966C401.876 414.554 401.973 414.199 402.166 413.901C402.362 413.599 402.642 413.366 403.005 413.202C403.372 413.037 403.805 412.955 404.305 412.955H407.071V419.5H405.873ZM401.578 419.5L403.423 416.193H404.727L402.882 419.5H401.578ZM408.767 419.5V412.955H410.041V415.699H410.654L412.815 412.955H414.392L411.856 416.138L414.422 419.5H412.841L410.868 416.884H410.041V419.5H408.767ZM416.66 417.714L419.545 412.955H420.917V419.5H419.668V414.736L416.796 419.5H415.411V412.955H416.66V417.714ZM423.636 412.955L425.08 415.503L426.538 412.955H427.931L425.89 416.227L427.948 419.5H426.555L425.08 417.054L423.61 419.5H422.212L424.249 416.227L422.238 412.955H423.636ZM432.049 414.054V412.955H437.571V414.054H435.436V419.5H434.192V414.054H432.049ZM440.168 417.714L443.053 412.955H444.425V419.5H443.176V414.736L440.304 419.5H438.919V412.955H440.168V417.714Z" fill="#171515"/>
<path d="M322.469 429.77H323.773C323.79 430.037 323.911 430.243 324.135 430.388C324.362 430.533 324.656 430.605 325.017 430.605C325.384 430.605 325.696 430.527 325.955 430.371C326.213 430.212 326.342 429.966 326.342 429.634C326.342 429.435 326.293 429.261 326.193 429.114C326.097 428.963 325.959 428.847 325.78 428.764C325.604 428.682 325.395 428.641 325.153 428.641H324.088V427.639H325.153C325.514 427.639 325.784 427.557 325.963 427.392C326.142 427.227 326.232 427.021 326.232 426.774C326.232 426.507 326.135 426.293 325.942 426.131C325.751 425.966 325.486 425.884 325.145 425.884C324.798 425.884 324.51 425.962 324.28 426.118C324.05 426.271 323.929 426.47 323.918 426.714H322.631C322.639 426.348 322.75 426.027 322.963 425.751C323.179 425.473 323.469 425.257 323.832 425.104C324.199 424.947 324.615 424.869 325.081 424.869C325.567 424.869 325.987 424.947 326.342 425.104C326.697 425.26 326.972 425.476 327.165 425.751C327.361 426.027 327.459 426.344 327.459 426.702C327.459 427.062 327.351 427.358 327.135 427.588C326.922 427.815 326.643 427.979 326.3 428.078V428.146C326.553 428.163 326.777 428.24 326.973 428.376C327.169 428.513 327.322 428.693 327.433 428.918C327.544 429.142 327.599 429.396 327.599 429.68C327.599 430.081 327.489 430.428 327.267 430.72C327.048 431.013 326.744 431.239 326.355 431.398C325.969 431.554 325.527 431.632 325.03 431.632C324.547 431.632 324.114 431.557 323.73 431.406C323.349 431.253 323.047 431.037 322.822 430.759C322.601 430.48 322.483 430.151 322.469 429.77ZM332.588 429.923L334.702 424.955H335.801L333.061 431.5H332.115L329.431 424.955H330.517L332.588 429.923ZM330.164 424.955V431.5H328.915V424.955H330.164ZM335.047 431.5V424.955H336.287V431.5H335.047ZM340.743 431.632C340.129 431.632 339.593 431.491 339.136 431.21C338.679 430.929 338.324 430.536 338.071 430.03C337.818 429.524 337.691 428.933 337.691 428.257C337.691 427.578 337.818 426.984 338.071 426.476C338.324 425.967 338.679 425.572 339.136 425.291C339.593 425.01 340.129 424.869 340.743 424.869C341.356 424.869 341.892 425.01 342.349 425.291C342.806 425.572 343.162 425.967 343.414 426.476C343.667 426.984 343.794 427.578 343.794 428.257C343.794 428.933 343.667 429.524 343.414 430.03C343.162 430.536 342.806 430.929 342.349 431.21C341.892 431.491 341.356 431.632 340.743 431.632ZM340.747 430.562C341.145 430.562 341.474 430.457 341.735 430.247C341.997 430.037 342.19 429.757 342.315 429.408C342.443 429.058 342.507 428.673 342.507 428.253C342.507 427.835 342.443 427.452 342.315 427.102C342.19 426.75 341.997 426.467 341.735 426.254C341.474 426.041 341.145 425.935 340.747 425.935C340.346 425.935 340.014 426.041 339.75 426.254C339.488 426.467 339.294 426.75 339.166 427.102C339.041 427.452 338.978 427.835 338.978 428.253C338.978 428.673 339.041 429.058 339.166 429.408C339.294 429.757 339.488 430.037 339.75 430.247C340.014 430.457 340.346 430.562 340.747 430.562ZM344.54 431.5L347.076 428.151L344.57 424.955H346.053L348.077 427.673H348.533V424.955H349.808V427.673H350.251L352.275 424.955H353.758L351.265 428.151L353.788 431.5H352.275L350.234 428.773H349.808V431.5H348.533V428.773H348.107L346.053 431.5H344.54ZM357.646 431.632C357.001 431.632 356.446 431.494 355.98 431.219C355.517 430.94 355.159 430.55 354.906 430.047C354.656 429.541 354.531 428.949 354.531 428.27C354.531 427.599 354.656 427.009 354.906 426.497C355.159 425.986 355.511 425.587 355.963 425.3C356.418 425.013 356.949 424.869 357.557 424.869C357.926 424.869 358.284 424.93 358.631 425.053C358.977 425.175 359.288 425.366 359.564 425.628C359.839 425.889 360.057 426.229 360.216 426.646C360.375 427.061 360.455 427.565 360.455 428.159V428.611H355.251V427.656H359.206C359.206 427.321 359.138 427.024 359.001 426.766C358.865 426.504 358.673 426.298 358.426 426.148C358.182 425.997 357.895 425.922 357.565 425.922C357.207 425.922 356.895 426.01 356.628 426.186C356.364 426.359 356.159 426.587 356.014 426.868C355.872 427.146 355.801 427.449 355.801 427.776V428.521C355.801 428.959 355.878 429.331 356.031 429.638C356.188 429.945 356.405 430.179 356.683 430.341C356.962 430.5 357.287 430.58 357.659 430.58C357.901 430.58 358.121 430.545 358.32 430.477C358.518 430.406 358.69 430.301 358.835 430.162C358.98 430.023 359.091 429.851 359.168 429.646L360.374 429.864C360.277 430.219 360.104 430.53 359.854 430.797C359.607 431.061 359.295 431.267 358.92 431.415C358.548 431.56 358.124 431.632 357.646 431.632ZM361.868 424.955H363.117V430.396H365.38V424.955H366.628V430.396H368.891V424.955H370.14V431.5H361.868V424.955ZM374.377 433.388V430.396H374.91C375.047 430.271 375.162 430.122 375.255 429.949C375.352 429.776 375.433 429.57 375.498 429.331C375.566 429.092 375.623 428.814 375.669 428.496C375.714 428.175 375.754 427.808 375.788 427.396L375.993 424.955H380.441V430.396H381.447V433.388H380.203V431.5H375.639V433.388H374.377ZM376.274 430.396H379.197V426.045H377.135L376.998 427.396C376.933 428.084 376.85 428.68 376.751 429.186C376.652 429.689 376.493 430.092 376.274 430.396ZM385.45 431.632C384.836 431.632 384.3 431.491 383.843 431.21C383.386 430.929 383.031 430.536 382.778 430.03C382.525 429.524 382.398 428.933 382.398 428.257C382.398 427.578 382.525 426.984 382.778 426.476C383.031 425.967 383.386 425.572 383.843 425.291C384.3 425.01 384.836 424.869 385.45 424.869C386.063 424.869 386.599 425.01 387.056 425.291C387.513 425.572 387.869 425.967 388.121 426.476C388.374 426.984 388.501 427.578 388.501 428.257C388.501 428.933 388.374 429.524 388.121 430.03C387.869 430.536 387.513 430.929 387.056 431.21C386.599 431.491 386.063 431.632 385.45 431.632ZM385.454 430.562C385.852 430.562 386.181 430.457 386.442 430.247C386.704 430.037 386.897 429.757 387.022 429.408C387.15 429.058 387.214 428.673 387.214 428.253C387.214 427.835 387.15 427.452 387.022 427.102C386.897 426.75 386.704 426.467 386.442 426.254C386.181 426.041 385.852 425.935 385.454 425.935C385.053 425.935 384.721 426.041 384.457 426.254C384.195 426.467 384.001 426.75 383.873 427.102C383.748 427.452 383.685 427.835 383.685 428.253C383.685 428.673 383.748 429.058 383.873 429.408C384.001 429.757 384.195 430.037 384.457 430.247C384.721 430.457 385.053 430.562 385.454 430.562ZM389.407 431.5L389.403 430.396H389.637C389.819 430.396 389.971 430.358 390.093 430.281C390.218 430.202 390.321 430.068 390.4 429.881C390.48 429.693 390.541 429.435 390.583 429.105C390.626 428.773 390.657 428.355 390.677 427.852L390.792 424.955H395.36V431.5H394.112V426.054H391.973L391.87 428.278C391.845 428.818 391.789 429.29 391.704 429.693C391.622 430.097 391.501 430.433 391.342 430.703C391.183 430.97 390.978 431.17 390.728 431.304C390.478 431.435 390.174 431.5 389.816 431.5H389.407ZM397.631 433.955C397.44 433.955 397.267 433.939 397.111 433.908C396.955 433.879 396.838 433.848 396.761 433.814L397.068 432.77C397.301 432.832 397.509 432.859 397.69 432.851C397.872 432.842 398.033 432.774 398.172 432.646C398.314 432.518 398.439 432.31 398.547 432.02L398.705 431.585L396.31 424.955H397.673L399.331 430.034H399.399L401.057 424.955H402.425L399.727 432.374C399.602 432.714 399.443 433.003 399.25 433.239C399.057 433.477 398.827 433.656 398.56 433.776C398.293 433.895 397.983 433.955 397.631 433.955ZM408.689 424.955V431.5H407.445V424.955H408.689ZM408.148 427.993V429.092C407.952 429.172 407.744 429.243 407.526 429.305C407.307 429.365 407.077 429.412 406.835 429.446C406.594 429.48 406.342 429.497 406.081 429.497C405.271 429.497 404.628 429.3 404.151 428.905C403.673 428.507 403.435 427.899 403.435 427.081V424.942H404.675V427.081C404.675 427.391 404.732 427.642 404.845 427.835C404.959 428.028 405.121 428.17 405.331 428.261C405.541 428.352 405.791 428.398 406.081 428.398C406.464 428.398 406.818 428.362 407.142 428.291C407.469 428.217 407.804 428.118 408.148 427.993ZM411.632 429.714L414.517 424.955H415.89V431.5H414.641V426.736L411.769 431.5H410.384V424.955H411.632V429.714ZM416.791 426.054V424.955H422.314V426.054H420.179V431.5H418.934V426.054H416.791ZM424.91 429.714L427.795 424.955H429.167V431.5H427.918V426.736L425.046 431.5H423.661V424.955H424.91V429.714ZM433.637 431.632C433.004 431.632 432.458 431.489 432.001 431.202C431.546 430.912 431.197 430.513 430.952 430.004C430.708 429.496 430.586 428.913 430.586 428.257C430.586 427.592 430.711 427.006 430.961 426.497C431.211 425.986 431.563 425.587 432.018 425.3C432.472 425.013 433.008 424.869 433.624 424.869C434.121 424.869 434.565 424.962 434.954 425.146C435.343 425.328 435.657 425.584 435.896 425.913C436.137 426.243 436.281 426.628 436.326 427.068H435.086C435.018 426.761 434.862 426.497 434.617 426.276C434.376 426.054 434.052 425.943 433.646 425.943C433.29 425.943 432.979 426.037 432.712 426.224C432.448 426.409 432.242 426.673 432.094 427.017C431.947 427.358 431.873 427.761 431.873 428.227C431.873 428.705 431.945 429.116 432.09 429.463C432.235 429.81 432.44 430.078 432.704 430.268C432.971 430.459 433.285 430.554 433.646 430.554C433.887 430.554 434.106 430.51 434.302 430.422C434.501 430.331 434.667 430.202 434.8 430.034C434.937 429.866 435.032 429.665 435.086 429.429H436.326C436.281 429.852 436.143 430.23 435.913 430.562C435.683 430.895 435.374 431.156 434.988 431.347C434.604 431.537 434.154 431.632 433.637 431.632ZM441.592 431.5V426.041H440.024C439.652 426.041 439.362 426.128 439.154 426.301C438.947 426.474 438.843 426.702 438.843 426.983C438.843 427.261 438.939 427.486 439.129 427.656C439.322 427.824 439.592 427.908 439.939 427.908H441.963V428.939H439.939C439.456 428.939 439.038 428.859 438.686 428.7C438.336 428.538 438.066 428.31 437.876 428.014C437.689 427.719 437.595 427.369 437.595 426.966C437.595 426.554 437.691 426.199 437.885 425.901C438.081 425.599 438.36 425.366 438.724 425.202C439.091 425.037 439.524 424.955 440.024 424.955H442.789V431.5H441.592ZM437.297 431.5L439.142 428.193H440.446L438.6 431.5H437.297Z" fill="#171515"/>
<path d="M337.95 484.185L339.597 469.707M339.597 469.707L325.054 468.816M339.597 469.707L323.406 483.293" stroke="#171515" stroke-width="1.5" stroke-linecap="round" stroke-linejoin="round"/>
</g>
<rect width="524" height="297" rx="26" fill="url(#paint0_linear_589_28)"/>
<rect x="71.875" y="81.1863" width="188.768" height="62.7997" rx="20" fill="#171515"/>
<path d="M103.6 118L99.9349 113.11H98.7737V118H97.1277V107.091H98.7737V111.699H99.3117L103.435 107.091H105.443L101.08 111.975L105.608 118H103.6ZM116.067 112.545C116.067 113.71 115.854 114.712 115.428 115.55C115.001 116.384 114.417 117.027 113.675 117.478C112.936 117.925 112.097 118.149 111.156 118.149C110.211 118.149 109.368 117.925 108.625 117.478C107.887 117.027 107.304 116.382 106.878 115.544C106.452 114.706 106.239 113.707 106.239 112.545C106.239 111.381 106.452 110.381 106.878 109.547C107.304 108.708 107.887 108.066 108.625 107.618C109.368 107.167 110.211 106.942 111.156 106.942C112.097 106.942 112.936 107.167 113.675 107.618C114.417 108.066 115.001 108.708 115.428 109.547C115.854 110.381 116.067 111.381 116.067 112.545ZM114.437 112.545C114.437 111.658 114.293 110.91 114.005 110.303C113.721 109.692 113.331 109.23 112.833 108.918C112.34 108.602 111.781 108.444 111.156 108.444C110.527 108.444 109.966 108.602 109.472 108.918C108.979 109.23 108.588 109.692 108.3 110.303C108.016 110.91 107.874 111.658 107.874 112.545C107.874 113.433 108.016 114.183 108.3 114.793C108.588 115.401 108.979 115.862 109.472 116.178C109.966 116.491 110.527 116.647 111.156 116.647C111.781 116.647 112.34 116.491 112.833 116.178C113.331 115.862 113.721 115.401 114.005 114.793C114.293 114.183 114.437 113.433 114.437 112.545ZM118.119 107.091H120.116L123.589 115.571H123.717L127.19 107.091H129.188V118H127.622V110.106H127.521L124.303 117.984H123.004L119.786 110.1H119.685V118H118.119V107.091ZM140.109 107.091V118H138.468V108.497H133.333V118H131.693V107.091H140.109ZM142.626 118V107.091H149.465V108.508H144.272V111.832H149.108V113.243H144.272V116.583H149.529V118H142.626ZM151.126 108.508V107.091H159.569V108.508H156.165V118H154.524V108.508H151.126ZM161.434 118V107.091H168.274V108.508H163.08V111.832H167.917V113.243H163.08V116.583H168.338V118H161.434ZM170.472 118V107.091H172.118V111.832H177.557V107.091H179.208V118H177.557V113.243H172.118V118H170.472ZM181.067 108.508V107.091H189.51V108.508H186.106V118H184.466V108.508H181.067ZM191.376 118V107.091H193.022V111.832H198.46V107.091H200.112V118H198.46V113.243H193.022V118H191.376ZM204.155 107.091V118H202.509V107.091H204.155ZM215.612 110.638H213.95C213.886 110.283 213.767 109.971 213.593 109.701C213.419 109.431 213.206 109.202 212.954 109.014C212.702 108.826 212.42 108.684 212.107 108.588C211.798 108.492 211.47 108.444 211.122 108.444C210.493 108.444 209.93 108.602 209.433 108.918C208.94 109.234 208.549 109.697 208.261 110.308C207.977 110.919 207.835 111.665 207.835 112.545C207.835 113.433 207.977 114.183 208.261 114.793C208.549 115.404 208.941 115.866 209.439 116.178C209.936 116.491 210.495 116.647 211.117 116.647C211.461 116.647 211.788 116.601 212.097 116.509C212.409 116.413 212.691 116.272 212.944 116.088C213.196 115.903 213.409 115.678 213.583 115.411C213.76 115.141 213.883 114.832 213.95 114.484L215.612 114.49C215.523 115.026 215.351 115.52 215.096 115.971C214.843 116.418 214.519 116.805 214.121 117.132C213.727 117.455 213.276 117.705 212.768 117.883C212.26 118.06 211.706 118.149 211.106 118.149C210.161 118.149 209.32 117.925 208.581 117.478C207.842 117.027 207.26 116.382 206.834 115.544C206.411 114.706 206.2 113.707 206.2 112.545C206.2 111.381 206.413 110.381 206.839 109.547C207.265 108.708 207.848 108.066 208.586 107.618C209.325 107.167 210.165 106.942 211.106 106.942C211.685 106.942 212.224 107.025 212.725 107.192C213.229 107.355 213.682 107.597 214.083 107.917C214.485 108.233 214.817 108.62 215.08 109.078C215.342 109.532 215.52 110.053 215.612 110.638ZM217.044 108.508V107.091H225.487V108.508H222.083V118H220.442V108.508H217.044ZM228.508 111.491H231.449C232.258 111.491 232.947 111.622 233.515 111.885C234.083 112.148 234.517 112.519 234.815 112.998C235.117 113.478 235.266 114.042 235.262 114.692C235.266 115.342 235.117 115.915 234.815 116.413C234.517 116.91 234.083 117.299 233.515 117.579C232.947 117.86 232.258 118 231.449 118H227.363V107.091H229.014V116.615H231.449C231.921 116.615 232.319 116.523 232.642 116.338C232.968 116.153 233.215 115.914 233.382 115.619C233.553 115.324 233.638 115.008 233.638 114.671C233.638 114.181 233.45 113.76 233.073 113.408C232.697 113.053 232.155 112.876 231.449 112.876H228.508V111.491Z" fill="white"/>
<rect x="0.103061" y="0.700781" width="188.01" height="63.8105" rx="19.5" transform="matrix(0.801441 0.598073 -0.595319 0.803489 305.758 47.0761)" stroke="#171515"/>
<path d="M335.477 101.149L328.549 110.499L327.147 109.452L333.181 101.308L328.792 98.032L322.757 106.176L321.355 105.13L328.282 95.7801L335.477 101.149ZM339.035 103.805L332.108 113.155L330.701 112.105L337.628 102.755L339.035 103.805ZM331.777 116.417L334.338 112.961L334.952 113.42C335.293 113.399 335.674 113.294 336.098 113.105C336.521 112.915 337.002 112.591 337.54 112.132C338.078 111.673 338.692 111.028 339.384 110.197L342.528 106.411L348.279 110.703L342.238 118.857L343.295 119.645L340.744 123.087L339.396 122.081L341.061 119.835L334.799 115.163L333.125 117.423L331.777 116.417ZM336.61 114.657L340.89 117.851L346.032 110.912L342.903 108.577L340.731 111.203C340.203 111.834 339.698 112.379 339.217 112.837C338.738 113.298 338.28 113.679 337.84 113.979C337.406 114.279 336.996 114.505 336.61 114.657ZM349.517 113.513L350.417 112.298L357.635 117.685L356.735 118.899L353.825 116.728L347.798 124.863L346.395 123.816L352.423 115.681L349.517 113.513ZM352.302 128.224L359.23 118.875L362.554 121.355C363.279 121.897 363.782 122.478 364.063 123.098C364.343 123.719 364.432 124.347 364.328 124.983C364.226 125.617 363.964 126.219 363.54 126.791C363.114 127.367 362.61 127.795 362.03 128.075C361.455 128.355 360.828 128.45 360.15 128.36C359.477 128.269 358.78 127.954 358.057 127.415L355.771 125.709L356.658 124.513L358.816 126.123C359.274 126.466 359.705 126.664 360.108 126.719C360.512 126.77 360.884 126.707 361.223 126.53C361.562 126.353 361.862 126.088 362.124 125.735C362.385 125.382 362.551 125.018 362.62 124.645C362.689 124.271 362.637 123.899 362.464 123.529C362.294 123.16 361.975 122.802 361.507 122.453L359.74 121.135L353.709 129.274L352.302 128.224ZM367.432 124.996L368.825 126.035L363.738 132.902L363.825 132.966L373.657 129.641L374.959 130.613L368.032 139.962L366.625 138.912L371.705 132.055L371.619 131.991L361.802 135.314L360.505 134.345L367.432 124.996ZM377.012 132.144L378.719 133.419L376.303 142.902L376.413 142.984L384.767 137.932L386.474 139.206L379.547 148.556L378.208 147.556L383.221 140.791L383.134 140.726L375.381 145.426L374.27 144.597L376.526 135.788L376.439 135.723L371.423 142.493L370.084 141.494L377.012 132.144ZM387.125 154.211L387.097 147.682L386.105 146.941L383 151.132L381.592 150.082L388.52 140.732L389.927 141.782L387.001 145.731L387.461 146.075L393.911 144.756L395.628 146.037L388.797 147.44L388.842 155.492L387.125 154.211ZM390.933 157.053L389.44 155.938L399.723 149.093L401.349 150.306L397.777 162.16L396.284 161.045L399.316 151.426L399.243 151.372L390.933 157.053ZM393.896 153.578L398.741 157.194L397.862 158.381L393.017 154.765L393.896 153.578Z" fill="#171515"/>
<rect x="0.644901" y="0.287936" width="187.855" height="63.8635" rx="19.5" transform="matrix(0.933526 -0.35851 0.356275 0.934381 67.9403 184.786)" stroke="#171515"/>
<path d="M113.557 208.487L109.412 197.615L116.222 194.999L116.761 196.411L111.589 198.397L112.852 201.71L117.668 199.861L118.205 201.267L113.389 203.117L114.658 206.446L119.893 204.435L120.432 205.847L113.557 208.487ZM122.809 193.906L124.766 193.154C125.594 192.837 126.397 192.737 127.176 192.856C127.957 192.97 128.655 193.284 129.268 193.799C129.885 194.309 130.357 194.996 130.687 195.859C131.013 196.716 131.116 197.539 130.995 198.327C130.878 199.115 130.567 199.815 130.062 200.426C129.56 201.033 128.895 201.495 128.068 201.813L126.111 202.565C125.283 202.883 124.479 202.986 123.7 202.876C122.918 202.762 122.221 202.454 121.608 201.951C120.998 201.447 120.529 200.764 120.201 199.904C119.87 199.037 119.764 198.206 119.882 197.41C120 196.614 120.31 195.911 120.811 195.3C121.315 194.688 121.981 194.224 122.809 193.906ZM123.349 195.323C122.784 195.541 122.346 195.845 122.037 196.235C121.726 196.622 121.549 197.076 121.504 197.596C121.459 198.117 121.553 198.683 121.787 199.295C122.015 199.893 122.317 200.368 122.694 200.718C123.073 201.063 123.507 201.276 123.996 201.356C124.483 201.433 125.008 201.363 125.57 201.147L127.533 200.394C128.095 200.178 128.53 199.879 128.838 199.497C129.149 199.11 129.326 198.66 129.37 198.148C129.416 197.631 129.325 197.072 129.095 196.47C128.865 195.865 128.56 195.386 128.182 195.032C127.806 194.673 127.374 194.454 126.885 194.373C126.399 194.288 125.874 194.354 125.312 194.57L123.349 195.323ZM124.046 191.775L128.434 203.285L126.827 203.903L122.439 192.393L124.046 191.775ZM134.737 200.354L130.591 189.481L137.402 186.865L137.94 188.278L132.768 190.264L134.032 193.577L138.848 191.727L139.384 193.134L134.568 194.983L135.837 198.312L141.072 196.302L141.611 197.714L134.737 200.354ZM150.181 194.423L144.674 190.95L143.517 191.394L145.376 196.268L143.737 196.897L139.591 186.025L141.23 185.395L142.981 189.988L143.517 189.782L145.871 183.613L147.871 182.845L145.383 189.382L152.181 193.655L150.181 194.423ZM149.556 183.817L149.018 182.404L157.425 179.176L157.963 180.588L154.574 181.89L158.181 191.35L156.547 191.978L152.94 182.517L149.556 183.817ZM159.282 178.462L160.905 177.839L163.95 185.824L164.051 185.785L166.533 175.678L168.05 175.095L172.196 185.968L170.557 186.597L167.516 178.623L167.416 178.662L164.94 188.755L163.428 189.335L159.282 178.462ZM174.587 185.05L170.441 174.177L174.419 172.649C175.19 172.353 175.877 172.236 176.48 172.296C177.081 172.353 177.59 172.55 178.005 172.885C178.42 173.217 178.729 173.652 178.935 174.19C179.107 174.643 179.17 175.057 179.123 175.432C179.074 175.804 178.945 176.137 178.738 176.432C178.532 176.722 178.279 176.973 177.979 177.186L178.02 177.292C178.387 177.171 178.783 177.153 179.209 177.237C179.636 177.316 180.038 177.509 180.414 177.815C180.79 178.121 181.086 178.555 181.3 179.118C181.512 179.674 181.572 180.223 181.479 180.766C181.388 181.304 181.121 181.806 180.679 182.272C180.235 182.735 179.592 183.128 178.75 183.451L174.587 185.05ZM175.689 183.014L178.055 182.105C178.84 181.804 179.344 181.435 179.567 181.001C179.791 180.566 179.816 180.12 179.641 179.664C179.511 179.32 179.304 179.039 179.021 178.819C178.739 178.598 178.404 178.465 178.018 178.419C177.635 178.371 177.224 178.432 176.785 178.6L174.361 179.531L175.689 183.014ZM173.873 178.251L176.069 177.408C176.437 177.267 176.741 177.069 176.98 176.815C177.223 176.559 177.383 176.271 177.459 175.949C177.537 175.623 177.51 175.285 177.376 174.934C177.205 174.485 176.904 174.168 176.473 173.985C176.042 173.801 175.501 173.834 174.851 174.084L172.612 174.944L173.873 178.251ZM184.36 181.297L180.214 170.424L181.853 169.794L183.654 174.519L189.07 172.44L187.268 167.715L188.913 167.083L193.058 177.956L191.414 178.588L189.606 173.847L184.191 175.926L185.999 180.667L184.36 181.297ZM192.938 165.537L197.084 176.41L195.445 177.039L191.299 166.167L192.938 165.537ZM205.696 164.691L204.041 165.327C203.842 164.997 203.605 164.731 203.329 164.529C203.053 164.327 202.754 164.18 202.432 164.089C202.109 163.997 201.774 163.964 201.426 163.988C201.082 164.01 200.737 164.088 200.39 164.221C199.764 164.462 199.264 164.834 198.889 165.339C198.518 165.843 198.305 166.455 198.251 167.173C198.2 167.891 198.342 168.688 198.676 169.566C199.014 170.451 199.44 171.143 199.955 171.643C200.474 172.142 201.04 172.452 201.654 172.574C202.267 172.695 202.884 172.637 203.502 172.399C203.845 172.267 204.153 172.096 204.426 171.886C204.701 171.671 204.928 171.423 205.109 171.143C205.29 170.863 205.417 170.556 205.489 170.224C205.563 169.887 205.567 169.533 205.502 169.16L207.159 168.53C207.275 169.098 207.291 169.656 207.208 170.203C207.127 170.746 206.95 171.256 206.678 171.733C206.409 172.206 206.055 172.628 205.616 172.999C205.178 173.371 204.66 173.671 204.063 173.9C203.122 174.262 202.199 174.36 201.294 174.197C200.387 174.03 199.562 173.61 198.819 172.938C198.08 172.264 197.489 171.349 197.048 170.191C196.605 169.03 196.438 167.953 196.545 166.958C196.651 165.96 196.986 165.096 197.552 164.368C198.116 163.636 198.867 163.09 199.804 162.73C200.38 162.509 200.949 162.386 201.511 162.361C202.075 162.33 202.618 162.398 203.139 162.563C203.659 162.725 204.136 162.983 204.572 163.34C205.007 163.692 205.381 164.143 205.696 164.691ZM206.312 162.02L205.773 160.608L214.18 157.38L214.719 158.792L211.329 160.093L214.937 169.554L213.303 170.181L209.696 160.721L206.312 162.02ZM218.861 160.609L221.789 159.485C222.595 159.175 223.331 159.043 223.997 159.087C224.662 159.132 225.235 159.336 225.714 159.7C226.197 160.062 226.56 160.568 226.803 161.217C227.054 161.863 227.123 162.492 227.011 163.103C226.903 163.713 226.62 164.266 226.161 164.763C225.701 165.26 225.069 165.663 224.262 165.972L220.194 167.535L216.048 156.662L217.693 156.031L221.312 165.523L223.736 164.592C224.206 164.411 224.567 164.167 224.819 163.86C225.074 163.551 225.229 163.217 225.283 162.86C225.341 162.501 225.306 162.153 225.177 161.817C224.991 161.329 224.644 160.981 224.135 160.775C223.626 160.565 223.019 160.595 222.315 160.865L219.387 161.99L218.861 160.609Z" fill="#171515"/>
<rect x="250.133" y="186.075" width="188.768" height="62.7997" rx="20" fill="#171515"/>
<path d="M299.502 222.075V210.439H303.649C304.555 210.439 305.305 210.604 305.899 210.933C306.494 211.263 306.939 211.713 307.234 212.285C307.53 212.854 307.678 213.494 307.678 214.206C307.678 214.922 307.528 215.566 307.229 216.138C306.933 216.706 306.486 217.157 305.888 217.49C305.293 217.82 304.545 217.984 303.644 217.984H300.791V216.496H303.484C304.056 216.496 304.52 216.397 304.877 216.2C305.233 215.999 305.494 215.727 305.661 215.382C305.827 215.037 305.911 214.645 305.911 214.206C305.911 213.766 305.827 213.376 305.661 213.035C305.494 212.695 305.231 212.427 304.871 212.234C304.515 212.041 304.045 211.945 303.462 211.945H301.257V222.075H299.502ZM309.736 222.075V210.439H317.031V211.95H311.492V215.496H316.651V217.001H311.492V220.564H317.1V222.075H309.736ZM323.269 222.234C322.488 222.234 321.791 222.1 321.178 221.831C320.568 221.562 320.085 221.189 319.729 220.712C319.377 220.23 319.187 219.674 319.161 219.041H320.945C320.967 219.386 321.083 219.685 321.291 219.939C321.503 220.189 321.78 220.382 322.121 220.518C322.462 220.655 322.841 220.723 323.257 220.723C323.716 220.723 324.121 220.643 324.473 220.484C324.829 220.325 325.108 220.104 325.308 219.82C325.509 219.532 325.609 219.2 325.609 218.825C325.609 218.435 325.509 218.092 325.308 217.797C325.111 217.498 324.822 217.263 324.439 217.092C324.06 216.922 323.602 216.837 323.064 216.837H322.081V215.405H323.064C323.496 215.405 323.875 215.327 324.2 215.172C324.53 215.016 324.787 214.801 324.973 214.524C325.159 214.244 325.252 213.916 325.252 213.541C325.252 213.181 325.17 212.869 325.007 212.604C324.848 212.335 324.621 212.124 324.325 211.973C324.034 211.821 323.689 211.746 323.291 211.746C322.912 211.746 322.558 211.816 322.229 211.956C321.903 212.092 321.638 212.289 321.433 212.547C321.229 212.801 321.119 213.105 321.104 213.462H319.405C319.424 212.833 319.609 212.28 319.962 211.802C320.318 211.325 320.787 210.952 321.371 210.683C321.954 210.414 322.602 210.28 323.314 210.28C324.06 210.28 324.704 210.426 325.246 210.717C325.791 211.005 326.212 211.39 326.507 211.871C326.806 212.352 326.954 212.878 326.95 213.45C326.954 214.102 326.772 214.655 326.405 215.109C326.041 215.564 325.556 215.869 324.95 216.024V216.115C325.723 216.232 326.322 216.539 326.746 217.035C327.174 217.532 327.386 218.147 327.382 218.882C327.386 219.522 327.208 220.096 326.848 220.604C326.492 221.111 326.005 221.511 325.388 221.802C324.77 222.09 324.064 222.234 323.269 222.234ZM330.513 222.234V220.689H331.212C331.503 220.689 331.744 220.64 331.933 220.541C332.127 220.443 332.284 220.31 332.405 220.143C332.53 219.973 332.634 219.787 332.717 219.587L332.882 219.172L328.791 210.439H330.655L333.706 217.166L336.422 210.439H338.263L334.24 220.058C334.07 220.445 333.873 220.802 333.649 221.132C333.43 221.462 333.136 221.729 332.769 221.933C332.401 222.134 331.914 222.234 331.308 222.234H330.513ZM339.043 222.075V220.552L339.384 220.541C339.846 220.53 340.209 220.373 340.475 220.07C340.743 219.766 340.939 219.278 341.06 218.604C341.185 217.929 341.268 217.03 341.31 215.905L341.509 210.439H348.867V222.075H347.134V211.927H343.162L342.98 216.371C342.931 217.617 342.806 218.664 342.605 219.513C342.404 220.357 342.064 220.996 341.582 221.427C341.105 221.859 340.425 222.075 339.543 222.075H339.043ZM352.656 215.132H355.793C356.656 215.132 357.391 215.272 357.997 215.552C358.603 215.833 359.065 216.229 359.384 216.74C359.706 217.251 359.865 217.854 359.861 218.547C359.865 219.24 359.706 219.852 359.384 220.382C359.065 220.912 358.603 221.327 357.997 221.626C357.391 221.926 356.656 222.075 355.793 222.075H351.435V210.439H353.196V220.598H355.793C356.296 220.598 356.721 220.499 357.065 220.302C357.414 220.105 357.677 219.85 357.855 219.535C358.037 219.221 358.128 218.884 358.128 218.524C358.128 218.001 357.927 217.552 357.526 217.177C357.124 216.799 356.546 216.609 355.793 216.609H352.656V215.132ZM360.787 211.95V210.439H369.793V211.95H366.162V222.075H364.412V211.95H360.787ZM371.391 222.075H369.527L373.715 210.439H375.743L379.93 222.075H378.067L374.777 212.552H374.686L371.391 222.075ZM371.703 217.518H377.749V218.996H371.703V217.518ZM379.662 211.95V210.439H388.668V211.95H385.037V222.075H383.287V211.95H379.662Z" fill="white"/>
<defs>
<filter id="filter0_d_589_28" x="-58" y="265" width="369" height="343" filterUnits="userSpaceOnUse" color-interpolation-filters="sRGB">
<feFlood flood-opacity="0" result="BackgroundImageFix"/>
<feColorMatrix in="SourceAlpha" type="matrix" values="0 0 0 0 0 0 0 0 0 0 0 0 0 0 0 0 0 0 127 0" result="hardAlpha"/>
<feOffset dx="2" dy="2"/>
<feGaussianBlur stdDeviation="30"/>
<feComposite in2="hardAlpha" operator="out"/>
<feColorMatrix type="matrix" values="0 0 0 0 0.752941 0 0 0 0 0.690196 0 0 0 0 0.984314 0 0 0 0.15 0"/>
<feBlend mode="normal" in2="BackgroundImageFix" result="effect1_dropShadow_589_28"/>
<feBlend mode="normal" in="SourceGraphic" in2="effect1_dropShadow_589_28" result="shape"/>
</filter>
<filter id="filter1_d_589_28" x="217" y="265" width="369" height="343" filterUnits="userSpaceOnUse" color-interpolation-filters="sRGB">
<feFlood flood-opacity="0" result="BackgroundImageFix"/>
<feColorMatrix in="SourceAlpha" type="matrix" values="0 0 0 0 0 0 0 0 0 0 0 0 0 0 0 0 0 0 127 0" result="hardAlpha"/>
<feOffset dx="2" dy="2"/>
<feGaussianBlur stdDeviation="30"/>
<feComposite in2="hardAlpha" operator="out"/>
<feColorMatrix type="matrix" values="0 0 0 0 0.886275 0 0 0 0 0.509804 0 0 0 0 0.290196 0 0 0 0.15 0"/>
<feBlend mode="normal" in2="BackgroundImageFix" result="effect1_dropShadow_589_28"/>
<feBlend mode="normal" in="SourceGraphic" in2="effect1_dropShadow_589_28" result="shape"/>
</filter>
<linearGradient id="paint0_linear_589_28" x1="524" y1="297" x2="165.5" y2="-133" gradientUnits="userSpaceOnUse">
<stop stop-color="#E268FF"/>
<stop offset="0.681293" stop-color="#E700F4"/>
<stop offset="1" stop-color="#FF0090"/>
</linearGradient>
</defs>
</svg>
