<svg width="38" height="38" viewBox="0 0 38 38" fill="none" xmlns="http://www.w3.org/2000/svg">
<rect width="38" height="38" rx="19" fill="white"/>
<g clip-path="url(#clip0_519_1646)">
<path d="M10.7308 18.7068L14.6808 20.1178L16.2098 24.8238C16.3078 25.1248 16.6928 25.2368 16.9488 25.0368L19.1508 23.3188C19.2649 23.231 19.4039 23.1816 19.5479 23.1778C19.6918 23.174 19.8333 23.2161 19.9518 23.2978L23.9228 26.0578C24.1958 26.2478 24.5838 26.1048 24.6518 25.7888L27.5608 12.3948C27.6358 12.0498 27.2808 11.7608 26.9378 11.8888L10.7268 17.8728C10.6397 17.9027 10.5641 17.9593 10.5108 18.0344C10.4575 18.1095 10.4291 18.1995 10.4297 18.2916C10.4302 18.3838 10.4597 18.4734 10.5139 18.5479C10.5681 18.6224 10.6433 18.678 10.7308 18.7068ZM15.9638 19.3668L23.6838 14.8158C23.8228 14.7338 23.9648 14.9138 23.8458 15.0198L17.4748 20.6878C17.2508 20.8878 17.1068 21.1548 17.0658 21.4438L16.8488 22.9828C16.8198 23.1888 16.5188 23.2088 16.4588 23.0098L15.6238 20.2028C15.5783 20.0454 15.5871 19.8772 15.6488 19.7254C15.7105 19.5736 15.8214 19.4479 15.9638 19.3668Z" fill="#D360E2"/>
</g>
<defs>
<clipPath id="clip0_519_1646">
<rect width="18" height="18" fill="white" transform="translate(10 10)"/>
</clipPath>
</defs>
</svg>
