<svg width="38" height="38" viewBox="0 0 38 38" fill="none" xmlns="http://www.w3.org/2000/svg">
<rect width="38" height="38" rx="19" fill="white"/>
<g clip-path="url(#clip0_519_1650)">
<g clip-path="url(#clip1_519_1650)">
<path d="M19.7092 10.5002C19.0992 10.5002 18.9792 10.9302 18.9692 11.1902C18.9392 11.7902 19.5192 11.8302 19.7892 11.8502L19.9692 11.8702C21.5556 11.9171 23.0613 12.5804 24.1667 13.7193C25.272 14.8582 25.8899 16.3831 25.8892 17.9702C25.8992 18.0302 25.8992 18.1102 25.8992 18.1902C25.8992 18.4802 25.9192 19.1002 26.5692 19.1102H26.5892C26.7992 19.1102 26.9592 19.0502 27.0792 18.9302C27.2792 18.7202 27.2692 18.4002 27.2592 18.1402V17.9702C27.3092 14.1202 23.9792 10.6302 20.1292 10.5102C20.1092 10.5102 20.0992 10.5102 20.0792 10.5102C20.0692 10.5102 20.0592 10.5102 20.0392 10.5102C19.9958 10.5082 19.9524 10.5049 19.9092 10.5002C19.8492 10.5002 19.7792 10.4902 19.7092 10.4902V10.5002ZM13.6392 11.3502C13.4492 11.3502 13.2492 11.3802 13.0492 11.4502C12.0492 11.7902 11.3292 12.3802 10.9692 13.1602C10.6192 13.9202 10.6392 14.8102 11.0092 15.7302C12.0992 18.4002 13.6292 20.7402 15.5592 22.6602C17.4492 24.5402 19.7792 26.0902 22.4692 27.2502C22.7092 27.3502 22.9692 27.4102 23.1492 27.4502L23.3092 27.4902C23.3292 27.5002 23.3492 27.5002 23.3792 27.5002H23.3992C24.6692 27.5002 26.1892 26.3402 26.6492 25.0202C27.0592 23.8602 26.3092 23.2902 25.7092 22.8302L25.4692 22.6402C25.0592 22.3102 24.6292 22.0102 24.2092 21.7202L23.9492 21.5402C23.5261 21.2043 23.0088 21.0086 22.4692 20.9802C21.8592 20.9802 21.3192 21.3202 20.8792 21.9902C20.6792 22.2902 20.4492 22.4302 20.1492 22.4302C19.9792 22.4302 19.7792 22.3802 19.5692 22.2802C17.8392 21.4902 16.5992 20.2902 15.8892 18.7002C15.5492 17.9302 15.6592 17.4302 16.2592 17.0202C16.5992 16.7902 17.2392 16.3602 17.1892 15.5302C17.1392 14.5902 15.0692 11.7602 14.1892 11.4402C14.0092 11.3702 13.8192 11.3402 13.6192 11.3402L13.6392 11.3502ZM19.9392 12.6702C19.4192 12.6702 19.2792 13.0302 19.2492 13.2502C19.2092 13.4602 19.2492 13.6402 19.3492 13.7802C19.5192 14.0102 19.8192 14.0602 20.0692 14.0902C20.1392 14.1002 20.2092 14.1102 20.2692 14.1202C22.5392 14.6302 23.3092 15.4302 23.6792 17.6802C23.6892 17.7402 23.6992 17.8002 23.6992 17.8802C23.7192 18.1502 23.7492 18.7102 24.3492 18.7102C24.3992 18.7102 24.4492 18.7102 24.5092 18.7002C25.0692 18.6102 25.0492 18.1002 25.0492 17.8602C25.0492 17.7902 25.0392 17.7202 25.0492 17.6802C25.0492 17.6702 25.0492 17.6602 25.0492 17.6502C25.0692 15.2502 23.0292 13.0602 20.4992 12.7502C20.4492 12.7402 20.3892 12.7302 20.3392 12.7202C20.2092 12.7002 20.0892 12.6802 19.9592 12.6802L19.9392 12.6702ZM20.3492 14.9102C20.1292 14.9202 19.6792 14.9302 19.5192 15.3902C19.4492 15.6002 19.4592 15.7902 19.5492 15.9402C19.6792 16.1602 19.9392 16.2302 20.1792 16.2702C21.0292 16.4102 21.4692 16.8802 21.5492 17.7502C21.5892 18.1602 21.8592 18.4402 22.2192 18.4402C22.2492 18.4402 22.2692 18.4402 22.2992 18.4402C22.7192 18.3902 22.9292 18.0802 22.9092 17.5202C22.9192 16.9302 22.6092 16.2702 22.0892 15.7402C21.5692 15.2102 20.9292 14.9102 20.3592 14.9202L20.3492 14.9102Z" fill="#D360E2"/>
</g>
</g>
<defs>
<clipPath id="clip0_519_1650">
<rect width="18" height="18" fill="white" transform="translate(10 10)"/>
</clipPath>
<clipPath id="clip1_519_1650">
<rect width="18" height="18" fill="white" transform="translate(10 10)"/>
</clipPath>
</defs>
</svg>
